<svg width="20" height="20" viewBox="0 0 20 20" fill="none" xmlns="http://www.w3.org/2000/svg">
<path d="M19.1667 3.33333V16.6667H0.833333V3.33333H19.1667ZM0.833333 2.5C0.373096 2.5 0 2.8731 0 3.33333V16.6667C0 17.1269 0.373096 17.5 0.833334 17.5H19.1667C19.6269 17.5 20 17.1269 20 16.6667V3.33333C20 2.8731 19.6269 2.5 19.1667 2.5H0.833333Z" fill="#212121"/>
<path d="M4.24184 6.64906C4.61993 6.64906 5.00002 6.76983 5.3261 7.01138V3.33329L6.30634 3.33329L6.30634 9.52785C6.31034 9.52346 6.31434 9.51906 6.32034 9.51687C6.33435 9.50808 7.72869 8.63193 7.72869 7.26171C7.72869 6.98722 7.93074 6.76324 8.1828 6.76324C8.43286 6.76324 8.63691 6.98503 8.63691 7.26171C8.63691 8.53531 7.87872 9.45099 7.32659 9.95385L19.1663 9.95385V11.0057L9.05501 11.0057C9.73518 11.8467 9.70917 13.1313 8.97499 13.9372C8.5929 14.3544 8.09478 14.563 7.59665 14.563C7.13454 14.563 6.67043 14.3829 6.30234 14.0228V16.6666H5.3261L5.3261 11.5986C4.87999 11.8884 4.12581 12.5164 4.02979 13.4804C4.00178 13.7549 3.77572 13.9525 3.52766 13.9218C3.2776 13.891 3.09756 13.6451 3.12557 13.3706C3.23959 12.2376 3.92776 11.4602 4.4999 11.0013H0.833008L0.833008 9.94945H2.60544C2.11532 9.12161 2.20134 8.00172 2.8635 7.27488C3.24559 6.85767 3.74372 6.64906 4.24184 6.64906ZM3.50766 7.98457C3.10356 8.42813 3.10356 9.15277 3.50766 9.59634C3.73772 9.84886 4.14781 9.95207 4.92 9.95207C5.03257 9.95207 5.14855 9.9502 5.26636 9.94818C5.2742 9.94805 5.28214 9.94792 5.29 9.94778L5.29609 9.94768C5.3141 9.07811 5.30209 8.34249 4.97602 7.98457C4.77997 7.76937 4.5199 7.65079 4.24184 7.65079C3.96377 7.65079 3.70371 7.76937 3.50766 7.98457ZM8.33084 13.2307C8.73494 12.7871 8.73494 12.0625 8.33084 11.6189C8.10079 11.3642 7.69069 11.261 6.9185 11.2632C6.79842 11.2632 6.67447 11.2653 6.54855 11.2675L6.54241 11.2676C6.5244 12.1372 6.5364 12.8728 6.86248 13.2307C7.05853 13.4459 7.31859 13.5645 7.59666 13.5645C7.87473 13.5645 8.13479 13.4459 8.33084 13.2307Z" fill="#1A66FF"/>
</svg>
