<svg width="86" height="84" viewBox="0 0 86 84" fill="none" xmlns="http://www.w3.org/2000/svg">
<circle cx="43.0003" cy="42" r="28.5" transform="rotate(-30 43.0003 42)" stroke="#E6E7EB" stroke-width="3"/>
<circle cx="42.9995" cy="41.9999" r="23.5" transform="rotate(-30 42.9995 41.9999)" stroke="#E6E7EB"/>
<rect x="10.6531" y="47.9737" width="62" height="22" transform="rotate(-30 10.6531 47.9737)" fill="white" stroke="#E6E7EB" stroke-width="2"/>
<path d="M36.1194 45.7552L33.5514 41.3073L25.6221 45.8853L26.2221 46.9245L33.0498 42.9825L34.4178 45.3519L29.1074 48.4179L28.3154 47.0462L27.2346 47.6702L30.3426 53.0534C30.8826 53.9887 31.589 54.2043 32.4828 53.6883L38.2609 50.3523C38.6646 50.0915 38.9355 49.7688 39.053 49.3962C39.1288 49.0476 38.8555 48.1662 38.2226 46.7579L36.9706 47.0374C37.5202 48.1334 37.7807 48.8005 37.7192 49.03C37.6457 49.2387 37.5258 49.3911 37.3595 49.4871L32.1945 52.4691C31.8204 52.6851 31.5254 52.606 31.3094 52.2319L29.7074 49.4572L36.1194 45.7552ZM36.318 39.2111L35.9882 40.3438C37.0844 40.5146 37.986 40.7561 38.6913 41.0418L39.0251 39.7959C38.2247 39.5375 37.3263 39.3495 36.318 39.2111ZM47.9282 44.9926L50.1314 43.7206L49.7612 42.4794C49.5134 42.6502 49.1409 42.893 48.654 43.2018C48.1612 43.5002 47.6788 43.7926 47.2007 44.0686C46.3589 44.5546 45.6151 44.9702 44.9856 45.3198C44.3292 45.671 43.7972 45.8535 43.391 45.894C43.0636 45.9029 42.6838 45.845 42.2784 45.7188C42.2128 45.7012 42.1532 45.6941 42.0877 45.6765L39.8077 41.7274L37.3863 43.1254L37.9743 44.1439L39.3668 43.3399L41.0108 46.1874C40.7271 46.656 40.5611 47.4724 40.5335 48.6246L41.7597 48.9004C41.7377 47.6383 41.8254 46.9503 42.0333 46.8303C42.158 46.7583 42.3515 46.7574 42.599 46.8501C43.1147 47.0234 43.6269 47.0464 44.1457 46.9132C44.6526 46.7591 45.2706 46.4854 45.9832 46.0878C46.6855 45.6962 47.3359 45.3346 47.9282 44.9926ZM46.8108 43.7533C47.5591 43.3213 47.7172 42.7311 47.2912 41.9933L44.8192 37.7116L46.2637 36.8776L45.6517 35.8176L44.2072 36.6516L43.3072 35.0928L42.2264 35.7168L43.1264 37.2756L39.2397 39.5196L39.8517 40.5796L43.7384 38.3356L46.0544 42.3471C46.2104 42.6173 46.1489 42.8468 45.8787 43.0028C45.463 43.2428 44.9982 43.4696 44.5169 43.692L45.3559 44.5933L46.8108 43.7533ZM41.6255 40.4839L41.0837 41.4895C42.1304 41.9106 42.9941 42.3265 43.6954 42.7252L44.2204 41.6185C43.5534 41.2553 42.681 40.8722 41.6255 40.4839ZM46.4429 33.324L47.0429 34.3632L46.5129 34.6692L47.0949 35.6772L47.6249 35.3712L49.9709 39.4346L49.3266 39.8066L49.9086 40.8147L54.9073 37.9287L54.3253 36.9206L53.7641 37.2446L51.4181 33.1812L51.9273 32.8872L51.3453 31.8792L50.8361 32.1732L50.2481 31.1547L49.2089 31.7547L49.7969 32.7732L48.0821 33.7632L47.4821 32.724L46.4429 33.324ZM51.0101 38.8346L50.5961 38.1176L52.3109 37.1276L52.7249 37.8446L51.0101 38.8346ZM50.3789 33.7812L50.7989 34.5087L49.0841 35.4987L48.6641 34.7712L50.3789 33.7812ZM50.0501 37.1719L49.6301 36.4444L51.3449 35.4544L51.7649 36.1819L50.0501 37.1719ZM53.4883 38.831L52.9526 39.8471C53.749 40.2186 54.4264 40.5758 54.9638 40.9306L55.3353 40.1341L56.49 40.382C56.6435 39.0879 56.4052 37.7151 55.7751 36.2637L57.4378 35.3037L58.4698 37.0912C58.6318 37.3718 58.6119 37.5773 58.4041 37.6973C58.0923 37.8773 57.7373 38.0545 57.3452 38.2393L58.2482 39.1314L59.329 38.5074C60.0357 38.0994 60.185 37.542 59.789 36.8561L55.073 28.6878L51.3006 30.8658L54.1926 35.8749C54.9262 37.1695 55.2756 38.4227 55.2468 39.6448C54.7798 39.3879 54.1936 39.1167 53.4883 38.831ZM51.1577 40.2182C51.178 41.0933 51.0715 41.9169 50.8486 42.683L52.0816 42.8025C52.258 41.9801 52.3181 41.1002 52.2602 40.1359L51.1577 40.2182ZM54.4034 33.744L56.0038 32.82L56.8678 34.3165L55.2674 35.2405L54.4034 33.744ZM55.4338 31.8327L53.8334 32.7567L52.9694 31.2602L54.5698 30.3362L55.4338 31.8327Z" fill="#E6E7EB"/>
</svg>
