<?xml version="1.0" standalone="no"?><!DOCTYPE svg PUBLIC "-//W3C//DTD SVG 1.1//EN" "http://www.w3.org/Graphics/SVG/1.1/DTD/svg11.dtd"><svg class="icon" width="200px" height="200.00px" viewBox="0 0 1024 1024" version="1.1" xmlns="http://www.w3.org/2000/svg"><path d="M512 64c-213.333333 0-384 170.666667-384 384s170.666667 384 384 384 384-170.666667 384-384-170.666667-384-384-384z m192 332.8l-68.266667 85.333333c0 4.266667-4.266667 4.266667-4.266666 8.533334l4.266666 110.933333c0 8.533333-8.533333 17.066667-17.066666 12.8l-102.4-38.4h-8.533334l-102.4 38.4c-8.533333 4.266667-17.066667-4.266667-17.066666-12.8l4.266666-110.933333c0-4.266667 0-4.266667-4.266666-8.533334l-68.266667-85.333333c-4.266667-8.533333 0-17.066667 8.533333-21.333333l106.666667-29.866667c4.266667 0 4.266667-4.266667 8.533333-4.266667l59.733334-89.6c4.266667-8.533333 17.066667-8.533333 21.333333 0L584.533333 341.333333c0 4.266667 4.266667 4.266667 8.533334 4.266667l106.666666 29.866667c4.266667 4.266667 8.533333 12.8 4.266667 21.333333z" fill="#2D8CF0" /><path d="M311.466667 874.666667h401.066666c8.533333 0 12.8 4.266667 12.8 12.8v59.733333c0 8.533333-4.266667 12.8-12.8 12.8H311.466667c-8.533333 0-12.8-4.266667-12.8-12.8v-59.733333c0-8.533333 4.266667-12.8 12.8-12.8z" fill="#8DC5FF" /></svg>