<?xml version="1.0" standalone="no"?><!DOCTYPE svg PUBLIC "-//W3C//DTD SVG 1.1//EN" "http://www.w3.org/Graphics/SVG/1.1/DTD/svg11.dtd"><svg class="icon" width="200px" height="200.00px" viewBox="0 0 1024 1024" version="1.1" xmlns="http://www.w3.org/2000/svg"><path fill="#333333" d="M1002.666667 256H21.333333c-12.8 0-21.333333 8.533333-21.333333 21.333333v469.333334c0 12.8 8.533333 21.333333 21.333333 21.333333h981.333334c12.8 0 21.333333-8.533333 21.333333-21.333333v-469.333334c0-12.8-8.533333-21.333333-21.333333-21.333333zM554.666667 384v277.333333c0 12.8-8.533333 21.333333-21.333334 21.333334h-42.666666c-12.8 0-21.333333-8.533333-21.333334-21.333334v-298.666666c0-12.8 8.533333-21.333333 21.333334-21.333334h42.666666c12.8 0 21.333333 8.533333 21.333334 21.333334V384z"  /></svg>