<?xml version="1.0" standalone="no"?><!DOCTYPE svg PUBLIC "-//W3C//DTD SVG 1.1//EN" "http://www.w3.org/Graphics/SVG/1.1/DTD/svg11.dtd"><svg class="icon" width="200px" height="200.00px" viewBox="0 0 1024 1024" version="1.1" xmlns="http://www.w3.org/2000/svg"><path fill="#333333" d="M853.333333 128H170.666667c-25.6 0-42.666667 17.066667-42.666667 42.666667v682.666666c0 25.6 17.066667 42.666667 42.666667 42.666667h682.666666c25.6 0 42.666667-17.066667 42.666667-42.666667V170.666667c0-25.6-17.066667-42.666667-42.666667-42.666667z m-85.333333 264.533333c0 8.533333-4.266667 12.8-12.8 12.8h-59.733333c-8.533333 0-12.8-4.266667-12.8-12.8v-38.4c0-8.533333-4.266667-12.8-12.8-12.8h-102.4c-8.533333 0-12.8 4.266667-12.8 12.8v320c0 4.266667 4.266667 12.8 12.8 12.8h42.666666c8.533333 0 12.8 4.266667 12.8 12.8v59.733334c0 8.533333-4.266667 12.8-12.8 12.8H418.133333c-8.533333 0-12.8-4.266667-12.8-12.8v-59.733334c0-8.533333 4.266667-12.8 12.8-12.8h38.4c8.533333 0 12.8-4.266667 12.8-12.8V354.133333c0-8.533333-4.266667-12.8-12.8-12.8H354.133333c-8.533333 0-12.8 4.266667-12.8 12.8v38.4c0 8.533333-4.266667 12.8-12.8 12.8H268.8c-8.533333 0-12.8-4.266667-12.8-12.8V268.8c0-8.533333 4.266667-12.8 12.8-12.8h486.4c8.533333 0 12.8 4.266667 12.8 12.8v123.733333z"  /></svg>