<?xml version="1.0" standalone="no"?><!DOCTYPE svg PUBLIC "-//W3C//DTD SVG 1.1//EN" "http://www.w3.org/Graphics/SVG/1.1/DTD/svg11.dtd"><svg t="1591685413759" class="icon" viewBox="0 0 1024 1024" version="1.1" xmlns="http://www.w3.org/2000/svg" p-id="11447" xmlns:xlink="http://www.w3.org/1999/xlink" width="200" height="200"><defs><style type="text/css"></style></defs><path d="M128 138.368m42.666667 0l256 0q42.666667 0 42.666666 42.666667l0 256q0 42.666667-42.666666 42.666666l-256 0q-42.666667 0-42.666667-42.666666l0-256q0-42.666667 42.666667-42.666667Z" fill="#2D8CF0" p-id="11448"></path><path d="M128 565.034667m42.666667 0l256 0q42.666667 0 42.666666 42.666666l0 256q0 42.666667-42.666666 42.666667l-256 0q-42.666667 0-42.666667-42.666667l0-256q0-42.666667 42.666667-42.666666Z" fill="#2D8CF0" p-id="11449"></path><path d="M725.333333 67.669333m30.16989 30.16989l181.019336 181.019336q30.169889 30.169889 0 60.339778l-181.019336 181.019336q-30.169889 30.169889-60.339779 0l-181.019336-181.019336q-30.169889-30.169889 0-60.339778l181.019336-181.019336q30.169889-30.169889 60.339779 0Z" fill="#8DC5FF" p-id="11450"></path><path d="M554.666667 565.034667m42.666666 0l256 0q42.666667 0 42.666667 42.666666l0 256q0 42.666667-42.666667 42.666667l-256 0q-42.666667 0-42.666666-42.666667l0-256q0-42.666667 42.666666-42.666666Z" fill="#2D8CF0" p-id="11451"></path></svg>