<svg width="24" height="24" viewBox="0 0 24 24" fill="none" xmlns="http://www.w3.org/2000/svg">
<path d="M7.18887 4.39421C8.62835 3.4836 10.2967 3.00014 12 3C14.3869 3 16.6761 3.94821 18.364 5.63604C20.0518 7.32387 21 9.61305 21 12C21 14.3869 20.0518 16.6761 18.364 18.364C16.6761 20.0518 14.3869 21 12 21H3.9C3.72201 21 3.54801 20.9472 3.40002 20.8483C3.25203 20.7494 3.13668 20.6089 3.06857 20.4444C3.00046 20.28 2.98265 20.099 3.01738 19.9245C3.05211 19.7499 3.13783 19.5896 3.2637 19.4637L5.03116 17.6962C3.95333 16.3772 3.27189 14.7795 3.066 13.0887C2.86011 11.3979 3.13823 9.68332 3.86804 8.14426C4.59785 6.6052 5.74939 5.30483 7.18887 4.39421Z" fill="#2D8CF0"/>
<path d="M9 12C9 12.5523 8.55228 13 8 13C7.44772 13 7 12.5523 7 12C7 11.4477 7.44772 11 8 11C8.55228 11 9 11.4477 9 12ZM13 12C13 12.5523 12.5523 13 12 13C11.4477 13 11 12.5523 11 12C11 11.4477 11.4477 11 12 11C12.5523 11 13 11.4477 13 12ZM16 13C16.5523 13 17 12.5523 17 12C17 11.4477 16.5523 11 16 11C15.4477 11 15 11.4477 15 12C15 12.5523 15.4477 13 16 13Z" fill="#ABDCFF"/>
</svg>
