<?xml version="1.0" standalone="no"?><!DOCTYPE svg PUBLIC "-//W3C//DTD SVG 1.1//EN" "http://www.w3.org/Graphics/SVG/1.1/DTD/svg11.dtd"><svg class="icon" width="200px" height="200.00px" viewBox="0 0 1024 1024" version="1.1" xmlns="http://www.w3.org/2000/svg"><path d="M699.733333 354.133333c-17.066667-17.066667-51.2-17.066667-68.266666 0L213.333333 759.466667V810.666667h597.333334v-349.866667l-110.933334-106.666667z" fill="#8DC5FF" /><path d="M853.333333 128H170.666667c-25.6 0-42.666667 17.066667-42.666667 42.666667v682.666666c0 25.6 17.066667 42.666667 42.666667 42.666667h682.666666c25.6 0 42.666667-17.066667 42.666667-42.666667V170.666667c0-25.6-17.066667-42.666667-42.666667-42.666667z m-42.666666 682.666667H213.333333V213.333333h597.333334v597.333334z" fill="#2D8CF0" /><path d="M362.666667 362.666667m-64 0a64 64 0 1 0 128 0 64 64 0 1 0-128 0Z" fill="#2D8CF0" /></svg>