<svg width="72" height="72" viewBox="0 0 72 72" fill="none" xmlns="http://www.w3.org/2000/svg">
<path opacity="0.10214" d="M36 72C55.8823 72 72 55.8823 72 36C72 16.1177 55.8823 0 36 0C16.1177 0 0 16.1177 0 36C0 55.8823 16.1177 72 36 72Z" fill="#00B47E"/>
<path d="M60.2003 35.6326L31.0487 25.0223C29.9895 24.6367 28.8183 25.1829 28.4328 26.2421L23.4683 39.8819C23.0828 40.9411 23.6289 42.1123 24.6881 42.4978L53.8397 53.1081C54.8989 53.4936 56.0701 52.9475 56.4556 51.8883L61.4201 38.2485C61.8056 37.1893 61.2595 36.0181 60.2003 35.6326Z" fill="#00CC8F"/>
<path d="M58.2341 36.5729L31.9511 27.0066C30.8919 26.6211 29.7207 27.1673 29.3352 28.2265L25.4308 38.9537C25.0452 40.0129 25.5914 41.1841 26.6506 41.5696L52.9337 51.1359C53.9929 51.5214 55.1641 50.9753 55.5496 49.916L59.454 39.1888C59.8395 38.1296 59.2934 36.9584 58.2341 36.5729Z" fill="#4DDBB0"/>
<path fill-rule="evenodd" clip-rule="evenodd" d="M52.7418 34.5739L59.1959 36.9229C59.7239 37.1151 59.9938 37.7056 59.7987 38.2418L55.2049 50.8631C55.0097 51.3992 54.4235 51.6781 53.8954 51.4859L47.4414 49.1368L52.7418 34.5739ZM32.3819 43.6556L25.6889 41.2196C25.1608 41.0274 24.8909 40.4369 25.0861 39.9007L29.6798 27.2795C29.875 26.7433 30.4613 26.4644 30.9894 26.6566L37.6824 29.0927" fill="#4DDBB0"/>
<path d="M40.4107 44.6465C43.4471 45.7516 46.8183 44.1482 47.9405 41.0651C49.0626 37.982 47.5108 34.5867 44.4744 33.4815C41.438 32.3764 38.0669 33.9798 36.9447 37.0629C35.8225 40.146 37.3743 43.5413 40.4107 44.6465Z" fill="#00CC8F"/>
<path d="M41.0299 42.948C43.1422 43.7168 45.4874 42.6014 46.268 40.4566C47.0486 38.3118 45.9691 35.9499 43.8568 35.1811C41.7446 34.4123 39.3994 35.5277 38.6188 37.6725C37.8381 39.8173 38.9176 42.1792 41.0299 42.948Z" fill="#4DDBB0"/>
<path fill-rule="evenodd" clip-rule="evenodd" d="M33.6064 27.1797C32.9717 25.7684 31.3276 25.17 29.9342 25.8431C28.5408 26.5162 27.9258 28.2059 28.5605 29.6172" fill="#68D393"/>
<path fill-rule="evenodd" clip-rule="evenodd" d="M59.1084 40.7348C60.5018 40.0617 61.1168 38.3719 60.4821 36.9607C59.8473 35.5494 58.2032 34.951 56.8098 35.6241" fill="#00CC8F"/>
<path fill-rule="evenodd" clip-rule="evenodd" d="M28.4194 42.1593C27.0362 42.8274 25.4042 42.2334 24.7741 40.8325C24.144 39.4315 24.7545 37.7541 26.1377 37.0859" fill="#68D393"/>
<path fill-rule="evenodd" clip-rule="evenodd" d="M56.4379 48.1379C57.1629 49.4889 56.6677 51.2036 55.3318 51.9679C53.996 52.7321 52.3253 52.2566 51.6002 50.9056" fill="#00CC8F"/>
<path d="M40.4298 15.819L8.74111 27.3527C7.6819 27.7383 7.13577 28.9094 7.52129 29.9687L13.4092 46.1456C13.7948 47.2048 14.9659 47.751 16.0251 47.3655L47.7139 35.8317C48.7731 35.4462 49.3192 34.275 48.9337 33.2158L43.0457 17.0388C42.6602 15.9796 41.489 15.4335 40.4298 15.819Z" fill="#00CC8F" stroke="#E0F6EF" stroke-width="1.8"/>
<path d="M38.7185 19.5248L12.4354 29.091C11.3762 29.4765 10.8301 30.6477 11.2156 31.7069L15.12 42.4342C15.5055 43.4934 16.6767 44.0395 17.7359 43.654L44.019 34.0877C45.0782 33.7022 45.6244 32.531 45.2388 31.4718L41.3344 20.7446C40.9489 19.6854 39.7777 19.1392 38.7185 19.5248Z" fill="#4DDBB0"/>
<path fill-rule="evenodd" clip-rule="evenodd" d="M33.2262 21.5238L39.6802 19.1747C40.2083 18.9825 40.7946 19.2614 40.9898 19.7976L45.5835 32.4188C45.7787 32.955 45.5088 33.5455 44.9807 33.7377L38.5267 36.0868L33.2262 21.5238ZM23.4673 41.5679L16.7742 44.004C16.2461 44.1962 15.6599 43.9173 15.4647 43.3812L10.8709 30.7599C10.6758 30.2237 10.9457 29.6333 11.4737 29.4411L18.1668 27.005" fill="#4DDBB0"/>
<path d="M30.2588 37.1717C33.2952 36.0665 34.847 32.6713 33.7249 29.5882C32.6027 26.505 29.2315 24.9016 26.1951 26.0067C23.1587 27.1119 21.607 30.5072 22.7291 33.5903C23.8513 36.6734 27.2225 38.2768 30.2588 37.1717Z" fill="#00CC8F"/>
<path d="M29.6408 35.4725C31.7531 34.7037 32.8326 32.3418 32.0519 30.197C31.2713 28.0522 28.9261 26.9368 26.8139 27.7056C24.7016 28.4744 23.6221 30.8363 24.4027 32.9811C25.1834 35.1259 27.5285 36.2413 29.6408 35.4725Z" fill="#4DDBB0"/>
<path fill-rule="evenodd" clip-rule="evenodd" d="M13.8152 28.1667C12.4218 27.4935 10.7777 28.092 10.1429 29.5032C9.50821 30.9145 10.1232 32.6042 11.5166 33.2773" fill="#00CC8F"/>
<path fill-rule="evenodd" clip-rule="evenodd" d="M42.0649 22.1572C42.6996 20.7459 42.0846 19.0562 40.6912 18.3831C39.2978 17.71 37.6537 18.3084 37.019 19.7197" fill="#00CC8F"/>
<path fill-rule="evenodd" clip-rule="evenodd" d="M19.4699 42.9705C18.8398 44.3714 17.2078 44.9655 15.8246 44.2973C14.4414 43.6291 13.8308 41.9517 14.4609 40.5508" fill="#00CC8F"/>
<path fill-rule="evenodd" clip-rule="evenodd" d="M44.7795 29.5431C46.2032 30.1119 46.9261 31.7438 46.3941 33.1879C45.862 34.6321 44.2765 35.3417 42.8527 34.7729" fill="#00CC8F"/>
</svg>
