<svg width="72" height="72" viewBox="0 0 72 72" fill="none" xmlns="http://www.w3.org/2000/svg">
<path opacity="0.08" d="M36 72C55.8823 72 72 55.8823 72 36C72 16.1178 55.8823 0 36 0C16.1178 0 0 16.1178 0 36C0 55.8823 16.1178 72 36 72Z" fill="#216AFF"/>
<path d="M35.9994 57.6023C47.9288 57.6023 57.5994 47.9317 57.5994 36.0023C57.5994 24.073 47.9288 14.4023 35.9994 14.4023C24.0701 14.4023 14.3994 24.073 14.3994 36.0023C14.3994 47.9317 24.0701 57.6023 35.9994 57.6023Z" fill="#216AFF"/>
<path d="M28.8721 42.2612C28.8721 39.2199 32.0502 36.2535 35.9684 36.2535C39.8866 36.2535 43.0662 39.2199 43.0662 42.2612C43.0662 43.9359 39.518 44.7725 35.9684 44.7725C32.4188 44.7725 28.8721 43.9359 28.8721 42.2612ZM32.125 31.4266C32.1282 30.6668 32.3563 29.925 32.7808 29.2947C33.2052 28.6645 33.8069 28.1742 34.5098 27.8857C35.2127 27.5971 35.9853 27.5233 36.7301 27.6736C37.4749 27.8238 38.1585 28.1914 38.6946 28.7299C39.2306 29.2684 39.5951 29.9536 39.742 30.6991C39.889 31.4445 39.8117 32.2168 39.52 32.9184C39.2283 33.62 38.7353 34.2195 38.1032 34.6411C37.4711 35.0627 36.7282 35.2875 35.9684 35.2873C35.4625 35.2861 34.9619 35.1854 34.4949 34.9907C34.028 34.7961 33.604 34.5114 33.2471 34.1529C32.8903 33.7944 32.6075 33.3692 32.4149 32.9014C32.2224 32.4336 32.1239 31.9325 32.125 31.4266V31.4266Z" fill="white"/>
</svg>
