<svg width="72" height="72" viewBox="0 0 72 72" fill="none" xmlns="http://www.w3.org/2000/svg">
<path opacity="0.08" d="M36 72C55.8823 72 72 55.8823 72 36C72 16.1178 55.8823 0 36 0C16.1178 0 0 16.1178 0 36C0 55.8823 16.1178 72 36 72Z" fill="#FF4370"/>
<path d="M48.3142 18.5391H23.683C21.6948 18.5391 20.083 20.1508 20.083 22.1391V52.1703C20.083 54.1585 21.6948 55.7703 23.683 55.7703H48.3142C50.3024 55.7703 51.9142 54.1585 51.9142 52.1703V22.1391C51.9142 20.1508 50.3024 18.5391 48.3142 18.5391Z" fill="#FF4370"/>
<path d="M32.3994 32.7572L34.7524 35.1088L39.5994 30.2617" stroke="#FBFCFF" stroke-width="1.3" stroke-miterlimit="10" stroke-linecap="round" stroke-linejoin="round"/>
<path d="M28.0352 42.6562H43.963" stroke="#FBFCFF" stroke-width="1.3" stroke-miterlimit="10" stroke-linecap="round" stroke-linejoin="round"/>
<path d="M30.1582 47.8789H41.8424" stroke="#FBFCFF" stroke-width="1.3" stroke-miterlimit="10" stroke-linecap="round" stroke-linejoin="round"/>
<path d="M41.036 14.4023H30.956C28.1725 14.4023 25.916 16.6588 25.916 19.4423C25.916 22.2259 28.1725 24.4823 30.956 24.4823H41.036C43.8195 24.4823 46.076 22.2259 46.076 19.4423C46.076 16.6588 43.8195 14.4023 41.036 14.4023Z" fill="#FBFCFF"/>
</svg>
