<svg width="72" height="72" viewBox="0 0 72 72" fill="none" xmlns="http://www.w3.org/2000/svg">
<path opacity="0.1" d="M36 72C55.8823 72 72 55.8823 72 36C72 16.1178 55.8823 0 36 0C16.1178 0 0 16.1178 0 36C0 55.8823 16.1178 72 36 72Z" fill="#FF993F"/>
<path d="M50.4267 17.0859H21.5749C19.189 17.0859 17.2549 19.0201 17.2549 21.4059V50.2578C17.2549 52.6436 19.189 54.5778 21.5749 54.5778H50.4267C52.8126 54.5778 54.7467 52.6436 54.7467 50.2578V21.4059C54.7467 19.0201 52.8126 17.0859 50.4267 17.0859Z" fill="#FF993F"/>
<path fill-rule="evenodd" clip-rule="evenodd" d="M27 28.5C27.8284 28.5 28.5 29.1716 28.5 30C28.5 34.1421 31.8579 37.5 36 37.5C40.1421 37.5 43.5 34.1421 43.5 30C43.5 29.1716 44.1716 28.5 45 28.5C45.8284 28.5 46.5 29.1716 46.5 30C46.5 35.799 41.799 40.5 36 40.5C30.201 40.5 25.5 35.799 25.5 30C25.5 29.1716 26.1716 28.5 27 28.5Z" fill="white"/>
</svg>
