<?xml version="1.0" standalone="no"?><!DOCTYPE svg PUBLIC "-//W3C//DTD SVG 1.1//EN" "http://www.w3.org/Graphics/SVG/1.1/DTD/svg11.dtd"><svg t="1592635200803" class="icon" viewBox="0 0 1024 1024" version="1.1" xmlns="http://www.w3.org/2000/svg" p-id="10937" xmlns:xlink="http://www.w3.org/1999/xlink" width="200" height="200"><defs><style type="text/css"></style></defs><path d="M725.333333 128h170.666667a42.666667 42.666667 0 0 1 42.666667 42.666667v682.666666a42.666667 42.666667 0 0 1-42.666667 42.666667H128a42.666667 42.666667 0 0 1-42.666667-42.666667V170.666667a42.666667 42.666667 0 0 1 42.666667-42.666667h170.666667V42.666667h85.333333v85.333333h256V42.666667h85.333333v85.333333zM170.666667 384v426.666667h682.666666V384H170.666667z m85.333333 85.333333h85.333333v85.333334H256v-85.333334z m213.333333 0h85.333334v85.333334h-85.333334v-85.333334z m213.333334 0h85.333333v85.333334h-85.333333v-85.333334z" fill="#2D8CF0" p-id="10938"></path></svg>