<svg width="24" height="24" viewBox="0 0 24 24" fill="none" xmlns="http://www.w3.org/2000/svg">
<circle cx="12" cy="12" r="10" fill="#B8B9BD"/>
<path fill-rule="evenodd" clip-rule="evenodd" d="M15.2575 16.3183C15.3747 16.4354 15.5647 16.4354 15.6818 16.3183L16.3182 15.6819C16.4354 15.5647 16.4354 15.3748 16.3182 15.2576L13.0607 12.0001L16.3182 8.74252C16.4354 8.62537 16.4354 8.43542 16.3182 8.31826L15.6818 7.68186C15.5646 7.56471 15.3747 7.56471 15.2575 7.68186L12 10.9394L8.74247 7.68186C8.62531 7.5647 8.43536 7.5647 8.31821 7.68186L7.68181 8.31826C7.56465 8.43542 7.56465 8.62536 7.68181 8.74252L10.9393 12.0001L7.6818 15.2576C7.56464 15.3748 7.56464 15.5647 7.6818 15.6819L8.3182 16.3183C8.43535 16.4354 8.6253 16.4354 8.74246 16.3183L12 13.0607L15.2575 16.3183Z" fill="white"/>
</svg>
