<?xml version="1.0" standalone="no"?><!DOCTYPE svg PUBLIC "-//W3C//DTD SVG 1.1//EN" "http://www.w3.org/Graphics/SVG/1.1/DTD/svg11.dtd"><svg t="1594807266017" class="icon" viewBox="0 0 1024 1024" version="1.1" xmlns="http://www.w3.org/2000/svg" p-id="42236" xmlns:xlink="http://www.w3.org/1999/xlink" width="200" height="200"><defs><style type="text/css">@font-face { font-family: element-icons; src: url("chrome-extension://moombeodfomdpjnpocobemoiaemednkg/fonts/element-icons.woff") format("woff"), url("chrome-extension://moombeodfomdpjnpocobemoiaemednkg/fonts/element-icons.ttf") format("truetype"); }
</style></defs><path d="M128 896h341.333333v-341.333333H128v341.333333z m85.333333-256h170.666667v170.666667H213.333333v-170.666667zM128 469.333333h341.333333V128H128v341.333333z m85.333333-256h170.666667v170.666667H213.333333V213.333333zM554.666667 128v341.333333h341.333333V128h-341.333333z m256 256h-170.666667V213.333333h170.666667v170.666667zM682.666667 768h85.333333v128h-85.333333z" fill="#2D8CF0" p-id="42237"></path><path d="M810.666667 640h-42.666667v-85.333333h-213.333333v341.333333h85.333333v-256h42.666667v85.333333h213.333333v-170.666666h-85.333333z" fill="#2D8CF0" p-id="42238"></path><path d="M810.666667 768h85.333333v128h-85.333333z" fill="#2D8CF0" p-id="42239"></path></svg>