<?xml version="1.0" standalone="no"?><!DOCTYPE svg PUBLIC "-//W3C//DTD SVG 1.1//EN" "http://www.w3.org/Graphics/SVG/1.1/DTD/svg11.dtd"><svg t="1604021140901" class="icon" viewBox="0 0 1024 1024" version="1.1" xmlns="http://www.w3.org/2000/svg" p-id="10084" xmlns:xlink="http://www.w3.org/1999/xlink" width="200" height="200"><defs><style type="text/css"></style></defs><path d="M563.2 128h307.2c17.066667 4.266667 25.6 12.8 25.6 25.6v298.666667c-4.266667 12.8-8.533333 21.333333-21.333333 25.6-12.8 4.266667-34.133333 4.266667-55.466667 0h-204.8c-21.333333 0-42.666667 4.266667-55.466667 0-21.333333-8.533333-21.333333-42.666667-21.333333-76.8V226.133333v-25.6c0-34.133333 0-68.266667 25.6-72.533333z m42.666667 290.133333h221.866666V196.266667h-221.866666V418.133333zM388.266667 482.133333H200.533333c-34.133333 0-68.266667 4.266667-72.533333-25.6V149.333333c4.266667-8.533333 12.8-17.066667 25.6-21.333333h307.2c25.6 4.266667 25.6 42.666667 25.6 76.8v204.8c0 29.866667 0 64-17.066667 72.533333-12.8 4.266667-38.4 4.266667-59.733333 4.266667-12.8-4.266667-17.066667-4.266667-21.333333-4.266667z m29.866666-285.866666H196.266667V418.133333h221.866666V196.266667zM405.333333 541.866667h55.466667c25.6 8.533333 21.333333 42.666667 21.333333 76.8v204.8c0 34.133333 4.266667 72.533333-25.6 72.533333H153.6c-12.8-4.266667-21.333333-12.8-25.6-25.6v-307.2c4.266667-8.533333 8.533333-21.333333 21.333333-21.333333 12.8-4.266667 34.133333-4.266667 55.466667 0h200.533333z m-213.333333 285.866666h221.866667v-221.866666H196.266667V827.733333z" fill="#5D60F6" p-id="10085"></path><path d="M832 541.866667v136.533333h-68.266667v-136.533333h-157.866666c-25.6 0-51.2 0-55.466667 21.333333-4.266667 12.8-4.266667 34.133333 0 55.466667v204.8c0 34.133333-4.266667 72.533333 25.6 76.8h38.4v-76.8-123.733334H682.666667v51.2h213.333333v-34.133333-140.8c0-34.133333-34.133333-38.4-64-34.133333zM819.2 896h51.2c12.8-4.266667 21.333333-12.8 25.6-25.6v-51.2h-76.8V896z" fill="#5D60F6" p-id="10086"></path><path d="M750.933333 896h-72.533333v-29.866667-51.2h72.533333V896z" fill="#5D60F6" p-id="10087"></path></svg>