<?xml version="1.0" standalone="no"?><!DOCTYPE svg PUBLIC "-//W3C//DTD SVG 1.1//EN" "http://www.w3.org/Graphics/SVG/1.1/DTD/svg11.dtd"><svg class="icon" width="200px" height="200.00px" viewBox="0 0 1024 1024" version="1.1" xmlns="http://www.w3.org/2000/svg"><path d="M896 512c0 76.8-21.333333 149.333333-64 213.333333s-102.4 110.933333-170.666667 140.8c-68.266667 29.866667-149.333333 38.4-221.866666 21.333334-72.533333-12.8-140.8-51.2-196.266667-106.666667-55.466667-55.466667-89.6-123.733333-106.666667-196.266667-17.066667-72.533333-8.533333-149.333333 21.333334-217.6 29.866667-68.266667 76.8-132.266667 140.8-170.666666 64-42.666667 136.533333-64 213.333333-64v384h384z" fill="#FF9900" /><path d="M554.666667 85.333333c51.2 0 102.4 8.533333 145.066666 29.866667 46.933333 21.333333 89.6 46.933333 123.733334 85.333333 34.133333 34.133333 64 76.8 85.333333 123.733334 21.333333 42.666667 29.866667 93.866667 29.866667 145.066666h-384V85.333333z" fill="#FFB800" /></svg>