<?xml version="1.0" standalone="no"?><!DOCTYPE svg PUBLIC "-//W3C//DTD SVG 1.1//EN" "http://www.w3.org/Graphics/SVG/1.1/DTD/svg11.dtd"><svg class="icon" width="200px" height="200.00px" viewBox="0 0 1024 1024" version="1.1" xmlns="http://www.w3.org/2000/svg"><path d="M170.666667 98.133333c0-8.533333 4.266667-12.8 12.8-12.8h486.4c8.533333 0 12.8 4.266667 12.8 12.8v102.4c0 8.533333-4.266667 12.8-12.8 12.8h-59.733334c-8.533333 0-12.8-4.266667-12.8-12.8v-17.066666c0-8.533333-4.266667-12.8-12.8-12.8h-102.4c-8.533333 0-12.8 4.266667-12.8 12.8v315.733333c0 8.533333 4.266667 12.8 12.8 12.8h17.066667c8.533333 0 12.8 4.266667 12.8 12.8v59.733333c0 8.533333-4.266667 12.8-12.8 12.8H354.133333c-8.533333 0-12.8-4.266667-12.8-12.8v-59.733333c0-8.533333 4.266667-12.8 12.8-12.8h17.066667c8.533333 0 12.8-4.266667 12.8-12.8V183.466667c0-8.533333-4.266667-12.8-12.8-12.8H268.8c-8.533333 0-12.8 4.266667-12.8 12.8v17.066666c0 8.533333-4.266667 12.8-12.8 12.8H183.466667c-8.533333 0-12.8-4.266667-12.8-12.8V98.133333z" fill="#2D8CF0" /><path d="M853.333333 584.533333c0 8.533333-4.266667 12.8-12.8 12.8h-187.733333c-8.533333 0-12.8-4.266667-12.8-12.8v-59.733333c0-8.533333 4.266667-12.8 12.8-12.8h187.733333c8.533333 0 12.8 4.266667 12.8 12.8v59.733333zM853.333333 755.2c0 8.533333-4.266667 12.8-12.8 12.8H183.466667c-8.533333 0-12.8-4.266667-12.8-12.8v-59.733333c0-8.533333 4.266667-12.8 12.8-12.8h657.066666c8.533333 0 12.8 4.266667 12.8 12.8v59.733333zM853.333333 925.866667c0 8.533333-4.266667 12.8-12.8 12.8H183.466667c-8.533333 0-12.8-4.266667-12.8-12.8v-59.733334c0-8.533333 4.266667-12.8 12.8-12.8h657.066666c8.533333 0 12.8 4.266667 12.8 12.8v59.733334z" fill="#8DC5FF" /></svg>