<?xml version="1.0" standalone="no"?><!DOCTYPE svg PUBLIC "-//W3C//DTD SVG 1.1//EN" "http://www.w3.org/Graphics/SVG/1.1/DTD/svg11.dtd"><svg class="icon" width="200px" height="200.00px" viewBox="0 0 1024 1024" version="1.1" xmlns="http://www.w3.org/2000/svg"><path fill="#333333" d="M273.066667 426.666667H157.866667c-38.4 110.933333-81.066667 221.866667-132.266667 328.533333h426.666667c-12.8-42.666667-21.333333-81.066667-34.133334-123.733333-12.8-42.666667-25.6-81.066667-42.666666-119.466667H273.066667c17.066667 55.466667 34.133333 106.666667 51.2 162.133333H179.2c17.066667-34.133333 29.866667-68.266667 46.933333-102.4 12.8-46.933333 29.866667-93.866667 46.933334-145.066666z m98.133333 59.733333h119.466667C452.266667 413.866667 413.866667 341.333333 379.733333 268.8H273.066667c17.066667 42.666667 29.866667 81.066667 51.2 119.466667 12.8 34.133333 29.866667 68.266667 46.933333 98.133333z m-371.2 0h119.466667C157.866667 413.866667 192 341.333333 221.866667 264.533333H106.666667c-12.8 34.133333-25.6 64-38.4 98.133334-21.333333 42.666667-42.666667 85.333333-68.266667 123.733333zM567.466667 537.6v217.6h430.933333v-217.6H567.466667z m-34.133334-115.2H640c4.266667-8.533333 8.533333-21.333333 12.8-34.133333h81.066667v46.933333h-196.266667v81.066667H1024v-81.066667h-183.466667V388.266667h162.133334V307.2h-162.133334v-42.666667h-102.4v42.666667h-59.733333c4.266667-8.533333 4.266667-21.333333 8.533333-34.133333h-102.4c-12.8 51.2-29.866667 102.4-51.2 149.333333z m132.266667 196.266667H896v59.733333h-230.4v-59.733333z"  /></svg>