<?xml version="1.0" standalone="no"?><!DOCTYPE svg PUBLIC "-//W3C//DTD SVG 1.1//EN" "http://www.w3.org/Graphics/SVG/1.1/DTD/svg11.dtd"><svg t="1608106789003" class="icon" viewBox="0 0 1024 1024" version="1.1" xmlns="http://www.w3.org/2000/svg" p-id="13149" xmlns:xlink="http://www.w3.org/1999/xlink" width="200" height="200"><defs><style type="text/css"></style></defs><path d="M674.730667 277.162667h58.666666L774.058667 170.666667H921.6l-45.397333 106.496H938.666667l-12.288 83.626666h-53.930667l-17.962667 133.12h71.893334l-13.226667 90.368h-71.936l-36.906667 268.117334h-148.48l36.864-268.117334h-87.04L530.901333 853.333333H381.44l74.752-269.056H409.813333l13.226667-90.325333h58.709333l37.802667-133.12h-61.44l12.245333-83.669333h42.581334l-12.288-71.296L472.277333 170.666667h185.429334l17.024 106.496z m-449.365334 13.312l13.226667-92.245334-22.698667-26.624h177.834667L376.746667 290.474667h61.482666l-12.288 87.466666H364.416l-15.146667 110.293334 54.869334-13.312-14.165334 96-53.930666 13.354666-28.373334 206.293334c-2.56 17.749333-10.752 32.64-24.618666 44.714666a71.381333 71.381333 0 0 1-48.213334 18.048H85.333333l73.813334-85.589333 19.84-145.450667-62.421334 15.189334 13.226667-96 62.464-15.232 20.778667-148.309334H153.429333l12.330667-87.466666h59.605333z m405.845334 203.477333h74.752l17.92-133.12h-54.826667l-37.845333 133.12z" fill="#2d8cf0" p-id="13150"></path></svg>