<?xml version="1.0" standalone="no"?><!DOCTYPE svg PUBLIC "-//W3C//DTD SVG 1.1//EN" "http://www.w3.org/Graphics/SVG/1.1/DTD/svg11.dtd"><svg t="1617174139083" class="icon" viewBox="0 0 1024 1024" version="1.1" xmlns="http://www.w3.org/2000/svg" p-id="38035" xmlns:xlink="http://www.w3.org/1999/xlink" width="200" height="200"><defs><style type="text/css">@font-face { font-family: element-icons; src: url("chrome-extension://moombeodfomdpjnpocobemoiaemednkg/fonts/element-icons.woff") format("woff"), url("chrome-extension://moombeodfomdpjnpocobemoiaemednkg/fonts/element-icons.ttf ") format("truetype"); }
</style></defs><path d="M647.253333 285.184h-52.821333L579.114667 192H412.245333l25.514667 30.762667 11.093333 62.421333h-38.314666L399.445333 358.4h55.381334l-34.090667 116.48H367.957333l-11.946666 79.018667h41.770666L330.496 789.333333H465.066667l67.285333-235.434666h49.834667a219.562667 219.562667 0 0 1 179.370666-116.992l10.88-78.506667h48.554667l11.050667-73.216h-56.192L816.64 192h-132.821333l-36.608 93.184z m-24.746666 189.696h-67.242667l34.090667-116.48h49.365333l-16.213333 116.48zM201.941333 216.106667l-11.946666 80.725333H136.362667l-11.093334 76.544h53.674667l-18.730667 129.792-56.192 13.312-11.946666 84.010667 56.234666-13.312-17.92 127.274666L64 789.333333h134.528a65.28 65.28 0 0 0 43.434667-15.786666 61.44 61.44 0 0 0 22.144-39.125334l25.514666-180.522666 48.554667-11.648 12.757333-84.053334-49.365333 11.648 13.610667-96.469333h55.338666l11.093334-76.544H326.186667l15.36-104.021333H181.504l20.437333 23.296z" fill="#2D8CF0" p-id="38036"></path><path d="M786.858667 827.093333a168.192 168.192 0 1 0 0-336.426666 168.192 168.192 0 0 0 0 336.426666z m47.274666-183.594666l7.168 13.269333 12.245334-18.432 1.024-8.746667h-59.008l-14.805334 98.389334H742.4l26.282667-176.384 130.304-4.864-3.584 30.762666-92.714667 4.864-2.816 18.133334h93.226667l-4.864 45.312-27.050667 37.546666 22.485333 45.269334-38.826666 0.682666-9.472-20.053333-14.805334 21.973333h-39.338666l36.266666-47.232-17.621333-36.266666 1.024-9.386667 33.706667-0.341333-0.512 5.546666z m-146.133333 96.768l12.288-111.957334h-8.192l3.328-29.44h51.882667l-14.336 128.170667 35.242666 13.226667h116.010667l-3.584 30.762666h-133.12l-25.002667-9.386666-4.096 9.386666h-43.690666l13.269333-30.72z m60.8-154.368h-38.826667l-10.453333-36.266667h38.826667l10.453333 36.266667z" fill="#2D8CF0" p-id="38037"></path></svg>