<?xml version="1.0" standalone="no"?><!DOCTYPE svg PUBLIC "-//W3C//DTD SVG 1.1//EN" "http://www.w3.org/Graphics/SVG/1.1/DTD/svg11.dtd"><svg class="icon" width="200px" height="200.00px" viewBox="0 0 1024 1024" version="1.1" xmlns="http://www.w3.org/2000/svg"><path fill="#333333" d="M499.2 499.2m-128 0a128 128 0 1 0 256 0 128 128 0 1 0-256 0Z"  /><path fill="#333333" d="M896 128H128c-25.6 0-42.666667 17.066667-42.666667 42.666667v682.666666c0 25.6 17.066667 42.666667 42.666667 42.666667h768c25.6 0 42.666667-17.066667 42.666667-42.666667V170.666667c0-25.6-17.066667-42.666667-42.666667-42.666667z m-166.4 567.466667l-29.866667 29.866666c-8.533333 8.533333-21.333333 8.533333-29.866666 0l-51.2-51.2c-34.133333 21.333333-72.533333 34.133333-119.466667 34.133334-119.466667 0-213.333333-93.866667-213.333333-213.333334s93.866667-213.333333 213.333333-213.333333 213.333333 93.866667 213.333333 213.333333c0 42.666667-12.8 85.333333-34.133333 119.466667l51.2 51.2c4.266667 8.533333 4.266667 25.6 0 29.866667z"  /></svg>