<?xml version="1.0" standalone="no"?><!DOCTYPE svg PUBLIC "-//W3C//DTD SVG 1.1//EN" "http://www.w3.org/Graphics/SVG/1.1/DTD/svg11.dtd"><svg t="1604021104863" class="icon" viewBox="0 0 1024 1024" version="1.1" xmlns="http://www.w3.org/2000/svg" p-id="9944" xmlns:xlink="http://www.w3.org/1999/xlink" width="200" height="200"><defs><style type="text/css"></style></defs><path d="M85.333333 465.28h81.749334l86.954666 178.901333 86.912-178.901333h81.749334l-110.506667 206.805333h73.685333v39.253334H290.858667l-0.554667 0.554666v49.322667h95.573333v39.253333h-95.573333v89.130667h-72.533333v-89.173333H122.709333v-39.210667h94.976v-49.322667l-0.554666-0.597333H122.752v-39.210667h73.130667L85.333333 465.28zM938.666667 632.874667c0-71.68-8.277333-143.36-66.304-203.221334-30.08-31.018667-76.714667-51.370667-137.813334-51.370666-49.792 0-91.221333 19.285333-110.933333 38.528V253.141333h298.453333V128h-420.693333v429.994667h123.306667c9.301333-29.952 34.176-62.037333 89.130666-62.037334 65.28 0 90.154667 49.194667 90.154667 136.917334 0 48.128-5.205333 88.746667-29.013333 113.365333-16.64 17.109333-38.4 24.618667-64.256 24.618667-55.978667 0-82.944-34.218667-90.197334-94.122667h-134.698666c4.138667 55.594667 14.506667 111.232 60.117333 158.293333 32.128 33.152 88.064 60.970667 164.778667 60.970667 76.672 0 129.536-27.818667 162.688-62.037333 53.888-55.637333 65.28-115.541333 65.28-201.088z" fill="#5D60F6" p-id="9945"></path></svg>