<svg width="24" height="24" viewBox="0 0 24 24" fill="none" xmlns="http://www.w3.org/2000/svg">
<path d="M22.5033 8.47773L18.1963 2.93117C17.7656 2.36437 17.0608 2 16.356 2H7.66359C6.9588 2 6.29316 2.32389 5.8233 2.93117L1.51626 8.47773C0.772314 9.40891 0.850624 10.7854 1.63372 11.6761L10.3653 21.2308L10.4827 21.3522C10.9134 21.7571 11.5008 22 12.0881 22H12.1664C12.7929 21.9595 13.3802 21.7166 13.8109 21.2308L22.3467 11.7166C23.1689 10.7854 23.2081 9.40891 22.5033 8.47773ZM10.1104 7L12 11.2157L13.8896 7H15.6667L13.2639 11.8739H14.8658V12.7983H12.8009L12.7884 12.8123V13.9748H14.8658V14.8992H12.7884V17H11.2116V14.8992H9.14676V13.9748H11.2116V12.8123L11.1991 12.7983H9.14676V11.8739H10.7361L8.33333 7H10.1104Z" fill="#2D8CF0"/>
</svg>
