<?xml version="1.0" standalone="no"?><!DOCTYPE svg PUBLIC "-//W3C//DTD SVG 1.1//EN" "http://www.w3.org/Graphics/SVG/1.1/DTD/svg11.dtd"><svg class="icon" width="200px" height="200.00px" viewBox="0 0 1024 1024" version="1.1" xmlns="http://www.w3.org/2000/svg"><path d="M42.666667 471.722667h87.936l93.525333 178.858666 93.525333-178.858666h87.936L286.72 678.528h79.274667v39.210667H263.765333l-0.597333 0.597333v49.322667h102.826667v39.210666h-102.826667V896h-78.08v-89.173333H82.986667v-39.168h102.186666v-49.322667l-0.64-0.597333h-101.546666v-39.253334h78.634666L42.666667 471.722667zM981.333333 363.306667C981.333333 212.48 874.325333 128 733.866667 128c-140.501333 0-247.509333 87.722667-247.509334 237.44 0 141.226667 102.570667 225.706667 209.578667 225.706667 18.944 0 40.106667-2.133333 59.093333-9.642667L590.037333 896h157.184l168.32-329.429333C951.253333 497.024 981.333333 432.853333 981.333333 363.306667z m-144.938666 1.066666c0 70.613333-43.477333 111.274667-102.570667 111.274667-61.312 0-102.528-43.861333-102.528-111.274667 0-70.570667 43.477333-111.232 102.570667-111.232 59.050667 0 102.528 40.661333 102.528 111.232z" fill="#5D60F6" /><path d="M981.333333 554.666667H42.666667v-85.333334h938.666666v85.333334z" fill="#B6B7FF" /></svg>