<?xml version="1.0" standalone="no"?><!DOCTYPE svg PUBLIC "-//W3C//DTD SVG 1.1//EN" "http://www.w3.org/Graphics/SVG/1.1/DTD/svg11.dtd"><svg t="1594116745823" class="icon" viewBox="0 0 1024 1024" version="1.1" xmlns="http://www.w3.org/2000/svg" p-id="26061" xmlns:xlink="http://www.w3.org/1999/xlink" width="200" height="200"><defs><style type="text/css"></style></defs><path d="M213.333333 213.333333h597.333334v597.333334H213.333333z" fill="#8DC5FF" p-id="26062"></path><path d="M896 213.333333a85.333333 85.333333 0 0 1-64 82.645334v432.042666a85.333333 85.333333 0 1 1-103.978667 103.978667H295.978667A85.333333 85.333333 0 1 1 192 728.021333V295.978667A85.333333 85.333333 0 1 1 295.978667 192h432.042666A85.333333 85.333333 0 0 1 896 213.333333z m-600.021333 21.333334A85.504 85.504 0 0 1 234.666667 295.978667v432.042666c29.994667 7.68 53.589333 31.317333 61.312 61.312h432.042666a85.504 85.504 0 0 1 61.312-61.312V295.978667A85.504 85.504 0 0 1 728.021333 234.666667H295.978667z" fill="#2D8CF0" p-id="26063"></path></svg>