<?xml version="1.0" standalone="no"?><!DOCTYPE svg PUBLIC "-//W3C//DTD SVG 1.1//EN" "http://www.w3.org/Graphics/SVG/1.1/DTD/svg11.dtd"><svg class="icon" width="200px" height="200.00px" viewBox="0 0 1024 1024" version="1.1" xmlns="http://www.w3.org/2000/svg"><path fill="#333333" d="M512 938.666667c235.648 0 426.666667-191.018667 426.666667-426.666667S747.648 85.333333 512 85.333333 85.333333 276.352 85.333333 512s191.018667 426.666667 426.666667 426.666667zM469.333333 277.333333a21.333333 21.333333 0 0 1 21.333334-21.333333h42.666666a21.333333 21.333333 0 0 1 21.333334 21.333333v298.666667a21.333333 21.333333 0 0 1-21.333334 21.333333h-42.666666a21.333333 21.333333 0 0 1-21.333334-21.333333v-298.666667zM370.346667 376.789333c8.490667 8.618667 8.021333 22.442667 0.213333 31.616a172.373333 172.373333 0 0 0-41.386667 112.085334c0 97.664 81.834667 176.810667 182.826667 176.810666s182.869333-79.146667 182.869333-176.810666c0-42.538667-15.530667-81.536-41.429333-112.085334-7.808-9.173333-8.277333-23.04 0.213333-31.573333l20.48-20.821333a20.053333 20.053333 0 0 1 29.056-0.085334A242.133333 242.133333 0 0 1 768 520.490667C768 657.194667 653.397333 768 512 768s-256-110.805333-256-247.466667c0-63.232 24.533333-120.917333 64.810667-164.608a20.053333 20.053333 0 0 1 29.013333 0.085334l20.522667 20.778666z"  /></svg>