<?xml version="1.0" standalone="no"?><!DOCTYPE svg PUBLIC "-//W3C//DTD SVG 1.1//EN" "http://www.w3.org/Graphics/SVG/1.1/DTD/svg11.dtd"><svg class="icon" width="200px" height="200.00px" viewBox="0 0 1024 1024" version="1.1" xmlns="http://www.w3.org/2000/svg"><path fill="#333333" d="M512 426.666667m-128 0a128 128 0 1 0 256 0 128 128 0 1 0-256 0Z"  /><path fill="#333333" d="M512 85.333333C277.333333 85.333333 85.333333 277.333333 85.333333 512s192 426.666667 426.666667 426.666667 426.666667-192 426.666667-426.666667S746.666667 85.333333 512 85.333333z m-38.4 768h76.8-76.8z m-192-89.6c8.533333 8.533333 17.066667 12.8 25.6 21.333334-8.533333-4.266667-17.066667-12.8-25.6-21.333334z m29.866667 25.6c8.533333 4.266667 17.066667 12.8 25.6 17.066667-8.533333-8.533333-17.066667-12.8-25.6-17.066667z m29.866666 17.066667l25.6 12.8-25.6-12.8z m29.866667 17.066667c8.533333 4.266667 17.066667 8.533333 25.6 8.533333-8.533333 0-17.066667-4.266667-25.6-8.533333z m34.133333 12.8c8.533333 4.266667 17.066667 4.266667 25.6 8.533333-8.533333-4.266667-17.066667-4.266667-25.6-8.533333z m34.133334 8.533333c8.533333 0 17.066667 4.266667 25.6 4.266667-8.533333 0-17.066667 0-25.6-4.266667z m119.466666 4.266667c8.533333 0 17.066667-4.266667 25.6-4.266667-8.533333 4.266667-17.066667 4.266667-25.6 4.266667z m34.133334-4.266667c8.533333 0 17.066667-4.266667 25.6-8.533333-8.533333 4.266667-17.066667 4.266667-25.6 8.533333z m34.133333-12.8c8.533333-4.266667 17.066667-4.266667 25.6-8.533333-8.533333 4.266667-17.066667 8.533333-25.6 8.533333z m29.866667-12.8l25.6-12.8-25.6 12.8z m29.866666-12.8c8.533333-4.266667 17.066667-12.8 25.6-17.066667-8.533333 4.266667-17.066667 8.533333-25.6 17.066667z m29.866667-21.333333c8.533333-8.533333 17.066667-12.8 25.6-21.333334-8.533333 8.533333-17.066667 17.066667-25.6 21.333334z m25.6-21.333334l25.6-25.6c-51.2-85.333333-145.066667-140.8-256-140.8s-200.533333 55.466667-256 140.8l25.6 25.6C213.333333 699.733333 170.666667 610.133333 170.666667 512c0-187.733333 153.6-341.333333 341.333333-341.333333s341.333333 153.6 341.333333 341.333333c0 98.133333-42.666667 187.733333-110.933333 251.733333z"  /></svg>