<?xml version="1.0" standalone="no"?><!DOCTYPE svg PUBLIC "-//W3C//DTD SVG 1.1//EN" "http://www.w3.org/Graphics/SVG/1.1/DTD/svg11.dtd"><svg class="icon" width="200px" height="200.00px" viewBox="0 0 1024 1024" version="1.1" xmlns="http://www.w3.org/2000/svg"><path fill="#333333" d="M853.333333 128H170.666667c-25.6 0-42.666667 17.066667-42.666667 42.666667v682.666666c0 25.6 17.066667 42.666667 42.666667 42.666667h682.666666c25.6 0 42.666667-17.066667 42.666667-42.666667V170.666667c0-25.6-17.066667-42.666667-42.666667-42.666667zM341.333333 725.333333c-25.6 0-42.666667-17.066667-42.666666-42.666666s17.066667-42.666667 42.666666-42.666667 42.666667 17.066667 42.666667 42.666667-17.066667 42.666667-42.666667 42.666666z m0-170.666666c-25.6 0-42.666667-17.066667-42.666666-42.666667s17.066667-42.666667 42.666666-42.666667 42.666667 17.066667 42.666667 42.666667-17.066667 42.666667-42.666667 42.666667z m0-170.666667c-25.6 0-42.666667-17.066667-42.666666-42.666667s17.066667-42.666667 42.666666-42.666666 42.666667 17.066667 42.666667 42.666666-17.066667 42.666667-42.666667 42.666667z m384 328.533333c0 8.533333-4.266667 12.8-12.8 12.8h-273.066666c-8.533333 0-12.8-4.266667-12.8-12.8v-59.733333c0-8.533333 4.266667-12.8 12.8-12.8h273.066666c8.533333 0 12.8 4.266667 12.8 12.8v59.733333z m0-170.666666c0 8.533333-4.266667 12.8-12.8 12.8h-273.066666c-8.533333 0-12.8-4.266667-12.8-12.8v-59.733334c0-8.533333 4.266667-12.8 12.8-12.8h273.066666c8.533333 0 12.8 4.266667 12.8 12.8v59.733334z m0-170.666667c0 8.533333-4.266667 12.8-12.8 12.8h-273.066666c-8.533333 0-12.8-4.266667-12.8-12.8V311.466667c0-8.533333 4.266667-12.8 12.8-12.8h273.066666c8.533333 0 12.8 4.266667 12.8 12.8v59.733333z"  /></svg>