<?xml version="1.0" standalone="no"?><!DOCTYPE svg PUBLIC "-//W3C//DTD SVG 1.1//EN" "http://www.w3.org/Graphics/SVG/1.1/DTD/svg11.dtd"><svg t="1592309722060" class="icon" viewBox="0 0 1024 1024" version="1.1" xmlns="http://www.w3.org/2000/svg" p-id="52972" xmlns:xlink="http://www.w3.org/1999/xlink" width="200" height="200"><defs><style type="text/css"></style></defs><path d="M780.8 132.266667c8.533333-8.533333 8.533333-25.6 0-38.4-8.533333-8.533333-25.6-8.533333-34.133333 0L597.333333 256v4.266667h72.533334l110.933333-128zM430.933333 251.733333L277.333333 93.866667c-8.533333-8.533333-25.6-8.533333-34.133333 0s-8.533333 25.6 0 38.4L358.4 256l72.533333-4.266667c0 4.266667 0 4.266667 0 0z" fill="#ABDCFF" p-id="52973"></path><path d="M844.8 256H179.2C128 256 85.333333 298.666667 85.333333 345.6v456.533333C85.333333 853.333333 128 896 179.2 896h665.6c51.2 0 93.866667-42.666667 93.866667-89.6V345.6C938.666667 298.666667 896 256 844.8 256z m-200.533333 358.4l-153.6 98.133333c-29.866667 21.333333-72.533333 0-72.533334-38.4v-196.266666c0-38.4 42.666667-59.733333 72.533334-38.4l153.6 98.133333c25.6 17.066667 25.6 59.733333 0 76.8z" fill="#2D8CF0" p-id="52974"></path></svg>