<?xml version="1.0" standalone="no"?><!DOCTYPE svg PUBLIC "-//W3C//DTD SVG 1.1//EN" "http://www.w3.org/Graphics/SVG/1.1/DTD/svg11.dtd"><svg class="icon" width="200px" height="200.00px" viewBox="0 0 1024 1024" version="1.1" xmlns="http://www.w3.org/2000/svg"><path d="M80.597333 780.8c0 16.512 16.981333 29.866667 37.930667 29.866667H213.333333V213.333333H80.597333C59.648 213.333333 42.666667 226.688 42.666667 243.2v179.2c0 30.293333 14.336 57.941333 37.930666 79.018667V780.8zM810.666667 499.328c24.533333-25.301333 39.381333-58.453333 39.381333-94.848V213.333333h87.509333c24.192 0 43.776 13.354667 43.776 29.866667v179.2c0 30.293333-16.512 57.941333-43.776 79.018667V780.8c0 16.512-19.584 29.866667-43.733333 29.866667H810.666667v-311.338667z" fill="#B6B7FF" /><path d="M896 396.8c0 38.954667-14.506667 74.538667-38.4 101.589333V857.6a38.4 38.4 0 0 1-38.4 38.4H204.8a38.4 38.4 0 0 1-38.4-38.4v-359.210667A153.002667 153.002667 0 0 1 128 396.8V166.4a38.4 38.4 0 0 1 38.4-38.4h691.2a38.4 38.4 0 0 1 38.4 38.4v230.4z m-115.2 148.778667a153.941333 153.941333 0 0 1-153.6-47.189334A152.874667 152.874667 0 0 1 512 550.4a152.874667 152.874667 0 0 1-115.2-52.010667A152.874667 152.874667 0 0 1 281.6 550.4c-13.226667 0-26.112-1.706667-38.4-4.821333V819.2h247.765333v-164.565333h64V819.2H780.8v-273.621333zM339.2 256a19.2 19.2 0 0 0-19.2 19.2V332.8c0 10.624 8.576 19.2 19.2 19.2h345.6a19.2 19.2 0 0 0 19.2-19.2V275.2a19.2 19.2 0 0 0-19.2-19.2h-345.6z" fill="#5D60F6" /></svg>