<?xml version="1.0" standalone="no"?><!DOCTYPE svg PUBLIC "-//W3C//DTD SVG 1.1//EN" "http://www.w3.org/Graphics/SVG/1.1/DTD/svg11.dtd"><svg t="1603181948664" class="icon" viewBox="0 0 1024 1024" version="1.1" xmlns="http://www.w3.org/2000/svg" p-id="16876" xmlns:xlink="http://www.w3.org/1999/xlink" width="200" height="200"><defs><style type="text/css"></style></defs><path d="M268.501333 392.832a42.666667 42.666667 0 0 1 60.330667-60.330667l128 128A42.666667 42.666667 0 0 1 426.666667 533.333333H128a42.666667 42.666667 0 1 1 0-85.333333h195.669333L268.501333 392.832z" fill="#FF9900" p-id="16877"></path><path d="M384 21.333333a85.333333 85.333333 0 0 0-85.333333 85.333334V256a42.666667 42.666667 0 0 0 85.333333 0V106.666667h308.650667l-137.642667 78.677333A85.333333 85.333333 0 0 0 512 259.413333V789.333333H384V640a42.666667 42.666667 0 1 0-85.333333 0v149.333333a85.333333 85.333333 0 0 0 85.333333 85.333334h128v54.485333c0 65.493333 70.784 106.581333 127.658667 74.069333l232.789333-116.736a42.666667 42.666667 0 0 0 23.552-38.144V106.666667a85.333333 85.333333 0 0 0-85.333333-85.333334H384z" fill="#FF9900" p-id="16878"></path></svg>