<?xml version="1.0" standalone="no"?><!DOCTYPE svg PUBLIC "-//W3C//DTD SVG 1.1//EN" "http://www.w3.org/Graphics/SVG/1.1/DTD/svg11.dtd"><svg t="1597819834950" class="icon" viewBox="0 0 1024 1024" version="1.1" xmlns="http://www.w3.org/2000/svg" p-id="20133" xmlns:xlink="http://www.w3.org/1999/xlink" width="48" height="48"><defs><style type="text/css">@font-face { font-family: element-icons; src: url("chrome-extension://moombeodfomdpjnpocobemoiaemednkg/fonts/element-icons.woff") format("woff"), url("chrome-extension://moombeodfomdpjnpocobemoiaemednkg/fonts/element-icons.ttf ") format("truetype"); }
</style></defs><path d="M170.666667 85.333333a85.333333 85.333333 0 0 0-85.333334 85.333334v682.666666a85.333333 85.333333 0 0 0 85.333334 85.333334h682.666666a85.333333 85.333333 0 0 0 85.333334-85.333334V170.666667a85.333333 85.333333 0 0 0-85.333334-85.333334H170.666667z m21.333333 725.333334h640a21.333333 21.333333 0 0 1 0 42.666666h-640a21.333333 21.333333 0 0 1 0-42.666666z" fill="#2D8CF0" p-id="20134"></path><path d="M383.658667 332.16l6.101333 15.530667 18.858667-23.296 7.210666-16.085334H301.568l7.210667-51.584h193.578666l-7.210666 52.693334-63.786667 77.098666h59.349333l-14.976 108.16h-55.466666l7.765333-57.130666H409.173333l-23.850666 170.282666a41.557333 41.557333 0 0 1-14.421334 26.624 39.765333 39.765333 0 0 1-26.624 9.984H259.413333l42.154667-51.584 21.632-155.306666h-44.373333l7.210666-51.029334h53.248L314.88 332.16h68.778667z m382.72-75.989333l-7.210667 53.802666h-92.074667l-9.984 23.850667h89.301334l-28.288 200.234667h-54.357334l-9.984-13.312 19.413334-137.557334h-100.394667l-19.413333 137.557334-13.312 13.312h-54.357334l28.288-200.234667h70.442667l9.984-23.850667h-85.973333l7.210666-53.802666h250.709334z m-112.597334 146.432l-16.64 117.034666 76.544 124.245334h-89.856l-27.733333-68.778667-52.693333 68.778667H459.093333l111.488-124.8 16.085334-116.48h67.114666z" fill="#FFFFFF" p-id="20135"></path><path d="M170.666667 810.666667m21.333333 0l426.666667 0q21.333333 0 21.333333 21.333333l0 0q0 21.333333-21.333333 21.333333l-426.666667 0q-21.333333 0-21.333333-21.333333l0 0q0-21.333333 21.333333-21.333333Z" fill="#ABDCFF" p-id="20136"></path></svg>