<?xml version="1.0" standalone="no"?><!DOCTYPE svg PUBLIC "-//W3C//DTD SVG 1.1//EN" "http://www.w3.org/Graphics/SVG/1.1/DTD/svg11.dtd"><svg class="icon" width="200px" height="200.00px" viewBox="0 0 1024 1024" version="1.1" xmlns="http://www.w3.org/2000/svg"><path d="M213.333333 128a85.333333 85.333333 0 0 0-85.333333 85.333333v597.333334a85.333333 85.333333 0 0 0 85.333333 85.333333h597.333334a85.333333 85.333333 0 0 0 85.333333-85.333333V213.333333a85.333333 85.333333 0 0 0-85.333333-85.333333H213.333333z m21.333334 640h554.666666a21.333333 21.333333 0 0 1 0 42.666667h-554.666666a21.333333 21.333333 0 0 1 0-42.666667z" fill="#5D60F6" /><path d="M391.893333 355.84l5.632 14.336 17.408-21.504 6.656-14.848H316.117333l6.656-47.616h178.688l-6.656 48.64-58.88 71.168H490.666667l-13.824 99.84h-51.2l7.168-52.736h-17.408l-22.016 157.184a38.4 38.4 0 0 1-13.312 24.576 36.693333 36.693333 0 0 1-24.576 9.216H277.205333l38.912-47.616 19.968-143.36h-40.96l6.656-47.104h49.152L328.405333 355.84h63.488z m353.28-70.144l-6.656 49.664h-84.992l-9.216 22.016h82.432l-26.112 184.832h-50.176l-9.216-12.288 17.92-126.976h-92.672l-17.92 126.976-12.288 12.288h-50.176l26.112-184.832h65.024l9.216-22.016h-79.36l6.656-49.664h231.424z m-103.936 135.168l-15.36 108.032 70.656 114.688H613.546667l-25.6-63.488-48.64 63.488h-77.824l102.912-115.2 14.848-107.52h61.952z" fill="#FFFFFF" /><path d="M213.333333 768m21.333334 0l256 0q21.333333 0 21.333333 21.333333l0 0q0 21.333333-21.333333 21.333334l-256 0q-21.333333 0-21.333334-21.333334l0 0q0-21.333333 21.333334-21.333333Z" fill="#B6B7FF" /></svg>