<?xml version="1.0" standalone="no"?><!DOCTYPE svg PUBLIC "-//W3C//DTD SVG 1.1//EN" "http://www.w3.org/Graphics/SVG/1.1/DTD/svg11.dtd"><svg t="1598669332567" class="icon" viewBox="0 0 1024 1024" version="1.1" xmlns="http://www.w3.org/2000/svg" p-id="22947" xmlns:xlink="http://www.w3.org/1999/xlink" width="48" height="48"><defs><style type="text/css">@font-face { font-family: element-icons; src: url("chrome-extension://moombeodfomdpjnpocobemoiaemednkg/fonts/element-icons.woff") format("woff"), url("chrome-extension://moombeodfomdpjnpocobemoiaemednkg/fonts/element-icons.ttf ") format("truetype"); }
</style></defs><path d="M685.738667 96.938667A11.605333 11.605333 0 0 0 674.133333 85.333333H349.696a11.605333 11.605333 0 0 0-11.605333 11.605334v75.477333c0 6.4 5.205333 11.605333 11.605333 11.605333H674.133333c6.4 0 11.605333-5.205333 11.605334-11.605333V96.938667z" fill="#2D8CF0" p-id="22948"></path><path d="M859.52 590.378667c0 192.341333-155.605333 348.288-347.605333 348.288S164.266667 782.72 164.266667 590.378667c0-57.173333 13.738667-111.146667 38.144-158.762667l-69.973334-54.784a11.605333 11.605333 0 0 1-1.962666-16.298667l46.378666-59.434666a11.562667 11.562667 0 0 1 16.213334-2.005334L259.413333 350.976a346.325333 346.325333 0 0 1 252.544-108.928c99.498667 0 189.226667 41.898667 252.586667 109.013333l66.389333-51.968a11.562667 11.562667 0 0 1 16.256 2.005334l46.378667 59.434666a11.605333 11.605333 0 0 1-1.962667 16.298667l-70.101333 54.869333a347.306667 347.306667 0 0 1 38.058667 158.677334z m-217.258667-35.541334h-97.749333v-160.426666l-162.986667 231.68h97.792v160.213333l162.986667-231.466667z" fill="#2D8CF0" p-id="22949"></path></svg>