<svg width="24" height="24" viewBox="0 0 24 24" fill="none" xmlns="http://www.w3.org/2000/svg">
<path d="M16.0717 2.27211C16.0717 2.12183 15.9501 2 15.8001 2H8.19557C8.04558 2 7.92399 2.12183 7.92399 2.27211V4.04082C7.92399 4.1911 8.04558 4.31293 8.19557 4.31293L15.8001 4.31293C15.9501 4.31293 16.0717 4.1911 16.0717 4.04082V2.27211Z" fill="#5D60F6"/>
<path d="M20.1454 13.8367C20.1454 18.3452 16.4976 22 11.9978 22C7.49795 22 3.85011 18.3452 3.85011 13.8367C3.85011 12.4965 4.17246 11.2317 4.74372 10.116L3.10437 8.83241C2.98618 8.73988 2.96525 8.56887 3.05761 8.45046L4.14462 7.05683C4.23698 6.93842 4.40766 6.91744 4.52585 7.00998L6.07932 8.22631C7.56442 6.65421 9.66679 5.67347 11.9978 5.67347C14.3298 5.67347 16.4329 6.65504 17.9181 8.22831L19.4742 7.00997C19.5923 6.91743 19.763 6.93841 19.8554 7.05682L20.9424 8.45045C21.0348 8.56886 21.0138 8.73987 20.8956 8.83241L19.2531 10.1185C19.8236 11.2336 20.1454 12.4975 20.1454 13.8367ZM15.0532 13.0043H12.7616V9.2449L8.9424 14.6733H11.2339V18.4286L15.0532 13.0043Z" fill="#5D60F6"/>
</svg>
