<?xml version="1.0" standalone="no"?><!DOCTYPE svg PUBLIC "-//W3C//DTD SVG 1.1//EN" "http://www.w3.org/Graphics/SVG/1.1/DTD/svg11.dtd"><svg class="icon" width="200px" height="200.00px" viewBox="0 0 1024 1024" version="1.1" xmlns="http://www.w3.org/2000/svg"><path fill="#333333" d="M853.333333 128H170.666667c-25.6 0-42.666667 17.066667-42.666667 42.666667v682.666666c0 25.6 17.066667 42.666667 42.666667 42.666667h682.666666c25.6 0 42.666667-17.066667 42.666667-42.666667V170.666667c0-25.6-17.066667-42.666667-42.666667-42.666667z m-213.333333 584.533333c0 8.533333-4.266667 12.8-12.8 12.8H396.8c-8.533333 0-12.8-4.266667-12.8-12.8v-59.733333c0-8.533333 4.266667-12.8 12.8-12.8h230.4c8.533333 0 12.8 4.266667 12.8 12.8v59.733333z m42.666667-392.533333c0 93.866667-76.8 170.666667-170.666667 170.666667s-170.666667-76.8-170.666667-170.666667v-8.533333c0-8.533333 4.266667-12.8 12.8-12.8h59.733334c8.533333 0 12.8 4.266667 12.8 12.8v8.533333c0 46.933333 38.4 85.333333 85.333333 85.333333s85.333333-38.4 85.333333-85.333333v-8.533333c0-8.533333 4.266667-12.8 12.8-12.8h59.733334c8.533333 0 12.8 4.266667 12.8 12.8v8.533333z"  /></svg>