<?xml version="1.0" standalone="no"?><!DOCTYPE svg PUBLIC "-//W3C//DTD SVG 1.1//EN" "http://www.w3.org/Graphics/SVG/1.1/DTD/svg11.dtd"><svg class="icon" width="200px" height="200.00px" viewBox="0 0 1024 1024" version="1.1" xmlns="http://www.w3.org/2000/svg"><path d="M810.666667 682.666667l110.933333 55.466666c29.866667 12.8 59.733333-8.533333 59.733333-38.4V324.266667c0-29.866667-34.133333-51.2-59.733333-38.4L810.666667 341.333333v341.333334z" fill="#B6B7FF" /><path d="M768 170.666667H85.333333c-25.6 0-42.666667 17.066667-42.666666 42.666666v597.333334c0 25.6 17.066667 42.666667 42.666666 42.666666h682.666667c25.6 0 42.666667-17.066667 42.666667-42.666666V213.333333c0-25.6-17.066667-42.666667-42.666667-42.666666zM234.666667 426.666667C200.533333 426.666667 170.666667 396.8 170.666667 362.666667S200.533333 298.666667 234.666667 298.666667 298.666667 328.533333 298.666667 362.666667 268.8 426.666667 234.666667 426.666667z" fill="#5D60F6" /></svg>