<?xml version="1.0" standalone="no"?><!DOCTYPE svg PUBLIC "-//W3C//DTD SVG 1.1//EN" "http://www.w3.org/Graphics/SVG/1.1/DTD/svg11.dtd"><svg class="icon" width="200px" height="200.00px" viewBox="0 0 1024 1024" version="1.1" xmlns="http://www.w3.org/2000/svg"><path d="M686.933333 665.6c-8.533333 8.533333-21.333333 17.066667-29.866666 25.6 12.8-8.533333 21.333333-17.066667 29.866666-25.6zM891.733333 853.333333l-136.533333-136.533333c-21.333333 21.333333-42.666667 38.4-64 55.466667l140.8 140.8c8.533333 8.533333 21.333333 8.533333 29.866667 0l29.866666-29.866667c8.533333-8.533333 8.533333-21.333333 0-29.866667z" fill="#B6B7FF" /><path d="M490.666667 746.666667c153.6 0 277.333333-123.733333 277.333333-277.333334s-123.733333-277.333333-277.333333-277.333333S213.333333 315.733333 213.333333 469.333333c0 149.333333 123.733333 277.333333 277.333334 277.333334z" fill="#B6B7FF" /><path d="M490.666667 106.666667C290.133333 106.666667 128 268.8 128 469.333333s162.133333 362.666667 362.666667 362.666667S853.333333 669.866667 853.333333 469.333333s-162.133333-362.666667-362.666666-362.666666z m0 640c-153.6 0-277.333333-128-277.333334-277.333334 0-153.6 123.733333-277.333333 277.333334-277.333333S768 315.733333 768 469.333333s-123.733333 277.333333-277.333333 277.333334z" fill="#5D60F6" /></svg>