<?xml version="1.0" standalone="no"?><!DOCTYPE svg PUBLIC "-//W3C//DTD SVG 1.1//EN" "http://www.w3.org/Graphics/SVG/1.1/DTD/svg11.dtd"><svg t="1600407439258" class="icon" viewBox="0 0 1024 1024" version="1.1" xmlns="http://www.w3.org/2000/svg" p-id="11998" xmlns:xlink="http://www.w3.org/1999/xlink" width="200" height="200"><defs><style type="text/css"></style></defs><path d="M810.666667 85.333333H213.333333c-25.6 0-42.666667 17.066667-42.666666 42.666667v768c0 25.6 17.066667 42.666667 42.666666 42.666667h597.333334c25.6 0 42.666667-17.066667 42.666666-42.666667V128c0-25.6-17.066667-42.666667-42.666666-42.666667z m-298.666667 725.333334c-34.133333 0-64-29.866667-64-64S477.866667 682.666667 512 682.666667s64 29.866667 64 64S546.133333 810.666667 512 810.666667z m128-533.333334c0 12.8-8.533333 21.333333-21.333333 21.333334h-213.333334c-12.8 0-21.333333-8.533333-21.333333-21.333334v-42.666666c0-12.8 8.533333-21.333333 21.333333-21.333334h213.333334c12.8 0 21.333333 8.533333 21.333333 21.333334v42.666666z" fill="#2D8CF0" p-id="11999"></path></svg>