<?xml version="1.0" standalone="no"?><!DOCTYPE svg PUBLIC "-//W3C//DTD SVG 1.1//EN" "http://www.w3.org/Graphics/SVG/1.1/DTD/svg11.dtd"><svg t="1592635210681" class="icon" viewBox="0 0 1024 1024" version="1.1" xmlns="http://www.w3.org/2000/svg" p-id="11056" xmlns:xlink="http://www.w3.org/1999/xlink" width="200" height="200"><defs><style type="text/css"></style></defs><path d="M128 166.4a38.4 38.4 0 0 1 38.4-38.4h691.2a38.4 38.4 0 0 1 38.4 38.4v691.2a38.4 38.4 0 0 1-38.4 38.4H166.4a38.4 38.4 0 0 1-38.4-38.4V166.4z m384 302.933333V298.666667h-85.333333v256h213.333333v-85.333334h-128z m-256 170.666667v85.333333h85.333333v-85.333333H256z m298.666667 85.333333v-85.333333h-85.333334v85.333333h85.333334z m213.333333-85.333333h-85.333333v85.333333h85.333333v-85.333333z" fill="#2D8CF0" p-id="11057"></path></svg>