<?xml version="1.0" standalone="no"?><!DOCTYPE svg PUBLIC "-//W3C//DTD SVG 1.1//EN" "http://www.w3.org/Graphics/SVG/1.1/DTD/svg11.dtd"><svg class="icon" width="200px" height="200.00px" viewBox="0 0 1024 1024" version="1.1" xmlns="http://www.w3.org/2000/svg"><path fill="#333333" d="M631.466667 200.533333c4.266667-8.533333 12.8-8.533333 25.6-8.533333 8.533333 0 17.066667 4.266667 25.6 8.533333 4.266667 8.533333 8.533333 17.066667 8.533333 25.6 0 12.8-4.266667 21.333333-8.533333 25.6-4.266667 8.533333-12.8 8.533333-25.6 8.533334-8.533333 0-17.066667-4.266667-25.6-8.533334-4.266667-4.266667-8.533333-12.8-8.533334-25.6 0-8.533333 0-17.066667 8.533334-25.6zM768 200.533333c4.266667-8.533333 12.8-8.533333 25.6-8.533333 8.533333 0 17.066667 4.266667 25.6 8.533333 4.266667 8.533333 8.533333 17.066667 8.533333 25.6 0 12.8-4.266667 21.333333-8.533333 25.6-4.266667 8.533333-12.8 8.533333-25.6 8.533334-8.533333 0-17.066667-4.266667-25.6-8.533334-4.266667-4.266667-8.533333-12.8-8.533333-25.6 0-8.533333 4.266667-17.066667 8.533333-25.6z"  /><path fill="#333333" d="M725.333333 469.333333c-68.266667 0-132.266667-34.133333-170.666666-85.333333v85.333333h149.333333c12.8 0 21.333333 8.533333 21.333333 21.333334v42.666666c0 12.8-8.533333 21.333333-21.333333 21.333334H554.666667v149.333333c0 12.8-8.533333 21.333333-21.333334 21.333333h-42.666666c-12.8 0-21.333333-8.533333-21.333334-21.333333V554.666667H320c-12.8 0-21.333333-8.533333-21.333333-21.333334v-42.666666c0-12.8 8.533333-21.333333 21.333333-21.333334H469.333333V320c0-12.8 8.533333-21.333333 21.333334-21.333333h25.6c-4.266667-12.8-4.266667-29.866667-4.266667-42.666667 0-46.933333 17.066667-89.6 42.666667-123.733333-17.066667-4.266667-29.866667-4.266667-42.666667-4.266667-213.333333 0-384 170.666667-384 384s170.666667 384 384 384 384-170.666667 384-384c0-38.4-4.266667-72.533333-17.066667-110.933333-38.4 42.666667-93.866667 68.266667-153.6 68.266666z"  /><path fill="#333333" d="M725.333333 426.666667c93.866667 0 170.666667-76.8 170.666667-170.666667s-76.8-170.666667-170.666667-170.666667-170.666667 76.8-170.666666 170.666667 76.8 170.666667 170.666666 170.666667z m25.6-238.933334c12.8-12.8 25.6-17.066667 42.666667-17.066666 21.333333 0 34.133333 8.533333 46.933333 21.333333 8.533333 12.8 12.8 34.133333 12.8 59.733333 0 25.6-4.266667 46.933333-17.066666 64-8.533333 17.066667-25.6 25.6-42.666667 25.6-29.866667 0-51.2-12.8-55.466667-42.666666h25.6c4.266667 17.066667 12.8 25.6 29.866667 25.6 12.8 0 21.333333-4.266667 25.6-17.066667 8.533333-12.8 8.533333-25.6 8.533333-38.4v-4.266667c-4.266667 8.533333-8.533333 12.8-17.066666 17.066667-8.533333 4.266667-12.8 4.266667-21.333334 4.266667-17.066667 0-29.866667-4.266667-38.4-17.066667-8.533333-8.533333-12.8-21.333333-12.8-38.4-4.266667-21.333333 4.266667-34.133333 12.8-42.666667z m-59.733333 72.533334c-4.266667 8.533333-12.8 12.8-17.066667 17.066666-8.533333 4.266667-12.8 4.266667-21.333333 4.266667-17.066667 0-29.866667-4.266667-38.4-17.066667-12.8-8.533333-17.066667-21.333333-17.066667-38.4s4.266667-29.866667 17.066667-38.4c8.533333-12.8 25.6-17.066667 38.4-17.066666 21.333333 0 34.133333 8.533333 46.933333 21.333333 8.533333 12.8 17.066667 34.133333 17.066667 59.733333 0 25.6-4.266667 46.933333-17.066667 64-12.8 17.066667-25.6 25.6-46.933333 25.6-29.866667 0-51.2-12.8-55.466667-42.666666h25.6c4.266667 17.066667 12.8 25.6 29.866667 25.6 12.8 0 21.333333-4.266667 25.6-17.066667 8.533333-12.8 12.8-25.6 12.8-46.933333z"  /></svg>