<?xml version="1.0" standalone="no"?><!DOCTYPE svg PUBLIC "-//W3C//DTD SVG 1.1//EN" "http://www.w3.org/Graphics/SVG/1.1/DTD/svg11.dtd"><svg class="icon" width="200px" height="200.00px" viewBox="0 0 1024 1024" version="1.1" xmlns="http://www.w3.org/2000/svg"><path d="M170.666667 256H21.333333c-12.8 0-21.333333 8.533333-21.333333 21.333333v469.333334c0 12.8 8.533333 21.333333 21.333333 21.333333H170.666667V256zM1002.666667 256H853.333333v512h149.333334c12.8 0 21.333333-8.533333 21.333333-21.333333v-469.333334c0-12.8-8.533333-21.333333-21.333333-21.333333zM691.2 392.533333c-17.066667-17.066667-42.666667-17.066667-59.733333 0l-384 384h529.066666v-298.666666l-85.333333-85.333334z" fill="#B6B7FF" /><path d="M814.933333 170.666667H209.066667c-21.333333 0-38.4 17.066667-38.4 38.4v605.866666c0 21.333333 17.066667 38.4 38.4 38.4h605.866666c21.333333 0 38.4-17.066667 38.4-38.4V209.066667c0-21.333333-17.066667-38.4-38.4-38.4z m-38.4 605.866666H247.466667V247.466667h529.066666v529.066666z" fill="#5D60F6" /><path d="M362.666667 362.666667m-64 0a64 64 0 1 0 128 0 64 64 0 1 0-128 0Z" fill="#5D60F6" /></svg>