<?xml version="1.0" standalone="no"?><!DOCTYPE svg PUBLIC "-//W3C//DTD SVG 1.1//EN" "http://www.w3.org/Graphics/SVG/1.1/DTD/svg11.dtd"><svg class="icon" width="200px" height="200.00px" viewBox="0 0 1024 1024" version="1.1" xmlns="http://www.w3.org/2000/svg"><path d="M853.333333 85.333333H170.666667c-25.6 0-42.666667 17.066667-42.666667 42.666667v597.333333c0 25.6 17.066667 42.666667 42.666667 42.666667h682.666666c25.6 0 42.666667-17.066667 42.666667-42.666667V128c0-25.6-17.066667-42.666667-42.666667-42.666667z m-42.666666 597.333334H213.333333V170.666667h597.333334v512z" fill="#2D8CF0" /><path d="M362.666667 320m-64 0a64 64 0 1 0 128 0 64 64 0 1 0-128 0Z" fill="#2D8CF0" /><path d="M874.666667 810.666667h-725.333334c-12.8 0-21.333333 8.533333-21.333333 21.333333v85.333333c0 12.8 8.533333 21.333333 21.333333 21.333334h725.333334c12.8 0 21.333333-8.533333 21.333333-21.333334v-85.333333c0-12.8-8.533333-21.333333-21.333333-21.333333z" fill="#2D8CF0" /><path d="M810.666667 384l-119.466667-119.466667c-17.066667-17.066667-42.666667-17.066667-59.733333 0l-409.6 409.6s-4.266667 4.266667-4.266667 8.533334H810.666667V384z" fill="#8DC5FF" /></svg>