<?xml version="1.0" standalone="no"?><!DOCTYPE svg PUBLIC "-//W3C//DTD SVG 1.1//EN" "http://www.w3.org/Graphics/SVG/1.1/DTD/svg11.dtd"><svg t="1592635481495" class="icon" viewBox="0 0 1024 1024" version="1.1" xmlns="http://www.w3.org/2000/svg" p-id="11413" xmlns:xlink="http://www.w3.org/1999/xlink" width="200" height="200"><defs><style type="text/css"></style></defs><path d="M405.333333 548.565333c-132.608 0-240-103.68-240-231.594666C165.333333 188.970667 272.725333 85.333333 405.333333 85.333333s240 103.68 240 231.637334-107.392 231.594667-240 231.594666zM85.333333 896c0-81.92 33.706667-160.426667 93.738667-218.368a325.973333 325.973333 0 0 1 226.261333-90.453333 325.973333 325.973333 0 0 1 226.261334 90.453333A303.445333 303.445333 0 0 1 725.333333 896H85.333333z" fill="#2D8CF0" p-id="11414"></path><path d="M725.333333 341.333333h213.333334v78.208h-213.333334V341.333333z m-85.333333 195.541334h298.666667v78.250666h-298.666667v-78.250666z m128 195.584h170.666667V810.666667h-170.666667v-78.208z" fill="#8DC5FF" p-id="11415"></path></svg>