<?xml version="1.0" standalone="no"?><!DOCTYPE svg PUBLIC "-//W3C//DTD SVG 1.1//EN" "http://www.w3.org/Graphics/SVG/1.1/DTD/svg11.dtd"><svg t="1592635071490" class="icon" viewBox="0 0 1024 1024" version="1.1" xmlns="http://www.w3.org/2000/svg" p-id="10460" xmlns:xlink="http://www.w3.org/1999/xlink" width="200" height="200"><defs><style type="text/css"></style></defs><path d="M512 938.666667C276.352 938.666667 85.333333 747.648 85.333333 512S276.352 85.333333 512 85.333333s426.666667 191.018667 426.666667 426.666667-191.018667 426.666667-426.666667 426.666667z m0-85.333334a341.333333 341.333333 0 1 0 0-682.709333A341.333333 341.333333 0 0 0 512 853.333333z" fill="#2D8CF0" p-id="10461"></path><path d="M524.202667 677.376a16.64 16.64 0 0 1-24.405334 0l-198.058666-229.546667c-7.509333-8.704-0.384-21.162667 12.202666-21.162666h396.117334c12.544 0 19.754667 12.458667 12.202666 21.205333l-198.058666 229.504z" fill="#2D8CF0" p-id="10462"></path></svg>