<?xml version="1.0" standalone="no"?><!DOCTYPE svg PUBLIC "-//W3C//DTD SVG 1.1//EN" "http://www.w3.org/Graphics/SVG/1.1/DTD/svg11.dtd"><svg class="icon" width="200px" height="200.00px" viewBox="0 0 1024 1024" version="1.1" xmlns="http://www.w3.org/2000/svg"><path d="M362.666667 170.666667h-256c-12.8 0-21.333333 8.533333-21.333334 21.333333v128c0 12.8 8.533333 21.333333 21.333334 21.333333h256c12.8 0 21.333333-8.533333 21.333333-21.333333v-128c0-12.8-8.533333-21.333333-21.333333-21.333333zM362.666667 426.666667h-256c-12.8 0-21.333333 8.533333-21.333334 21.333333v128c0 12.8 8.533333 21.333333 21.333334 21.333333h256c12.8 0 21.333333-8.533333 21.333333-21.333333v-128c0-12.8-8.533333-21.333333-21.333333-21.333333zM362.666667 682.666667h-256c-12.8 0-21.333333 8.533333-21.333334 21.333333v128c0 12.8 8.533333 21.333333 21.333334 21.333333h256c12.8 0 21.333333-8.533333 21.333333-21.333333v-128c0-12.8-8.533333-21.333333-21.333333-21.333333z" fill="#FF9900" /><path d="M917.333333 170.666667h-426.666666c-12.8 0-21.333333 8.533333-21.333334 21.333333v128c0 12.8 8.533333 21.333333 21.333334 21.333333h426.666666c12.8 0 21.333333-8.533333 21.333334-21.333333v-128c0-12.8-8.533333-21.333333-21.333334-21.333333zM917.333333 426.666667h-426.666666c-12.8 0-21.333333 8.533333-21.333334 21.333333v128c0 12.8 8.533333 21.333333 21.333334 21.333333h426.666666c12.8 0 21.333333-8.533333 21.333334-21.333333v-128c0-12.8-8.533333-21.333333-21.333334-21.333333zM917.333333 682.666667h-426.666666c-12.8 0-21.333333 8.533333-21.333334 21.333333v128c0 12.8 8.533333 21.333333 21.333334 21.333333h426.666666c12.8 0 21.333333-8.533333 21.333334-21.333333v-128c0-12.8-8.533333-21.333333-21.333334-21.333333z" fill="#FFB800" /></svg>