<?xml version="1.0" standalone="no"?><!DOCTYPE svg PUBLIC "-//W3C//DTD SVG 1.1//EN" "http://www.w3.org/Graphics/SVG/1.1/DTD/svg11.dtd"><svg class="icon" width="200px" height="200.00px" viewBox="0 0 1024 1024" version="1.1" xmlns="http://www.w3.org/2000/svg"><path d="M128 149.333333c0-25.6 17.066667-42.666667 42.666667-42.666666h682.666666c25.6 0 42.666667 17.066667 42.666667 42.666666v426.666667H128v-426.666667z" fill="#FF9900" /><path d="M896 618.666667H128c-25.6 0-42.666667 17.066667-42.666667 42.666666v213.333334c0 25.6 17.066667 42.666667 42.666667 42.666666h768c25.6 0 42.666667-17.066667 42.666667-42.666666v-213.333334c0-25.6-17.066667-42.666667-42.666667-42.666666zM384 810.666667c0 12.8-8.533333 21.333333-21.333333 21.333333h-85.333334c-12.8 0-21.333333-8.533333-21.333333-21.333333v-85.333334c0-12.8 8.533333-21.333333 21.333333-21.333333h85.333334c12.8 0 21.333333 8.533333 21.333333 21.333333v85.333334z m192 0c0 12.8-8.533333 21.333333-21.333333 21.333333h-85.333334c-12.8 0-21.333333-8.533333-21.333333-21.333333v-85.333334c0-12.8 8.533333-21.333333 21.333333-21.333333h85.333334c12.8 0 21.333333 8.533333 21.333333 21.333333v85.333334z m192 0c0 12.8-8.533333 21.333333-21.333333 21.333333h-85.333334c-12.8 0-21.333333-8.533333-21.333333-21.333333v-85.333334c0-12.8 8.533333-21.333333 21.333333-21.333333h85.333334c12.8 0 21.333333 8.533333 21.333333 21.333333v85.333334z" fill="#FFB800" /></svg>