<?xml version="1.0" standalone="no"?><!DOCTYPE svg PUBLIC "-//W3C//DTD SVG 1.1//EN" "http://www.w3.org/Graphics/SVG/1.1/DTD/svg11.dtd"><svg class="icon" width="200px" height="200.00px" viewBox="0 0 1024 1024" version="1.1" xmlns="http://www.w3.org/2000/svg"><path d="M704 512h-384c-12.8 0-21.333333 8.533333-21.333333 21.333333v42.666667c0 12.8 8.533333 21.333333 21.333333 21.333333h384c12.8 0 21.333333-8.533333 21.333333-21.333333v-42.666667c0-12.8-8.533333-21.333333-21.333333-21.333333zM533.333333 682.666667h-213.333333c-12.8 0-21.333333 8.533333-21.333333 21.333333v42.666667c0 12.8 8.533333 21.333333 21.333333 21.333333h213.333333c12.8 0 21.333333-8.533333 21.333334-21.333333v-42.666667c0-12.8-8.533333-21.333333-21.333334-21.333333z" fill="#FFB800" /><path d="M320 426.666667h213.333333c12.8 0 21.333333-8.533333 21.333334-21.333334v-128c0-12.8-8.533333-21.333333-21.333334-21.333333h-213.333333c-12.8 0-21.333333 8.533333-21.333333 21.333333v128c0 12.8 8.533333 21.333333 21.333333 21.333334z" fill="#FF9900" /><path d="M810.666667 85.333333H213.333333c-25.6 0-42.666667 17.066667-42.666666 42.666667v768c0 25.6 17.066667 42.666667 42.666666 42.666667h597.333334c25.6 0 42.666667-17.066667 42.666666-42.666667V128c0-25.6-17.066667-42.666667-42.666666-42.666667z m-42.666667 768H256V170.666667h512v682.666666z" fill="#FF9900" /></svg>