<?xml version="1.0" standalone="no"?><!DOCTYPE svg PUBLIC "-//W3C//DTD SVG 1.1//EN" "http://www.w3.org/Graphics/SVG/1.1/DTD/svg11.dtd"><svg class="icon" width="200px" height="200.00px" viewBox="0 0 1024 1024" version="1.1" xmlns="http://www.w3.org/2000/svg"><path fill="#333333" d="M853.333333 98.133333H170.666667c-25.6 0-42.666667 17.066667-42.666667 42.666667v738.133333c0 34.133333 34.133333 51.2 64 38.4l298.666667-166.4c12.8-8.533333 29.866667-8.533333 42.666666 0l298.666667 166.4c29.866667 17.066667 64-4.266667 64-38.4V140.8c0-25.6-17.066667-42.666667-42.666667-42.666667zM298.666667 290.133333c0-12.8 8.533333-21.333333 21.333333-21.333333h256c12.8 0 21.333333 8.533333 21.333333 21.333333v42.666667c0 12.8-8.533333 21.333333-21.333333 21.333333h-256c-12.8 0-21.333333-8.533333-21.333333-21.333333v-42.666667z m426.666666 256c0 12.8-8.533333 21.333333-21.333333 21.333334h-384c-12.8 0-21.333333-8.533333-21.333333-21.333334v-42.666666c0-12.8 8.533333-21.333333 21.333333-21.333334h384c12.8 0 21.333333 8.533333 21.333333 21.333334v42.666666z"  /></svg>