<?xml version="1.0" standalone="no"?><!DOCTYPE svg PUBLIC "-//W3C//DTD SVG 1.1//EN" "http://www.w3.org/Graphics/SVG/1.1/DTD/svg11.dtd"><svg class="icon" width="200px" height="200.00px" viewBox="0 0 1024 1024" version="1.1" xmlns="http://www.w3.org/2000/svg"><path fill="#333333" d="M896 145.066667H128v-4.266667c-25.6 0-42.666667 17.066667-42.666667 42.666667v512c0 25.6 17.066667 42.666667 42.666667 42.666666h106.666667c12.8 0 21.333333 8.533333 21.333333 21.333334v98.133333c0 17.066667 21.333333 29.866667 34.133333 17.066667l136.533334-128c4.266667-4.266667 8.533333-4.266667 12.8-4.266667H896c25.6 0 42.666667-17.066667 42.666667-42.666667v-512c0-25.6-17.066667-42.666667-42.666667-42.666666z m-341.333333 401.066666c0 12.8-8.533333 21.333333-21.333334 21.333334h-256c-12.8 0-21.333333-8.533333-21.333333-21.333334v-42.666666c0-12.8 8.533333-21.333333 21.333333-21.333334h256c12.8 0 21.333333 8.533333 21.333334 21.333334v42.666666z m213.333333-170.666666c0 12.8-8.533333 21.333333-21.333333 21.333333h-469.333334c-12.8 0-21.333333-8.533333-21.333333-21.333333v-42.666667c0-12.8 8.533333-21.333333 21.333333-21.333333h469.333334c12.8 0 21.333333 8.533333 21.333333 21.333333v42.666667z"  /></svg>