<?xml version="1.0" standalone="no"?><!DOCTYPE svg PUBLIC "-//W3C//DTD SVG 1.1//EN" "http://www.w3.org/Graphics/SVG/1.1/DTD/svg11.dtd"><svg class="icon" width="200px" height="200.00px" viewBox="0 0 1024 1024" version="1.1" xmlns="http://www.w3.org/2000/svg"><path fill="#333333" d="M878.933333 443.733333c29.866667-8.533333 59.733333-34.133333 59.733334-76.8V251.733333c0-46.933333-38.4-81.066667-81.066667-81.066666H166.4C123.733333 170.666667 85.333333 204.8 85.333333 251.733333v119.466667c0 38.4 29.866667 68.266667 59.733334 76.8 29.866667 8.533333 55.466667 38.4 55.466666 68.266667 0 29.866667-21.333333 59.733333-55.466666 68.266666-29.866667 4.266667-59.733333 29.866667-59.733334 72.533334v119.466666c0 42.666667 38.4 76.8 81.066667 76.8h691.2c42.666667 0 81.066667-34.133333 81.066667-81.066666v-119.466667c0-38.4-29.866667-68.266667-59.733334-76.8-29.866667-8.533333-55.466667-34.133333-55.466666-68.266667 0-25.6 21.333333-55.466667 55.466666-64zM682.666667 627.2c0 8.533333-4.266667 12.8-12.8 12.8H354.133333c-8.533333 0-12.8-4.266667-12.8-12.8v-59.733333c0-8.533333 4.266667-12.8 12.8-12.8h315.733334c8.533333 0 12.8 4.266667 12.8 12.8v59.733333z m0-170.666667c0 8.533333-4.266667 12.8-12.8 12.8H354.133333c-8.533333 0-12.8-4.266667-12.8-12.8V396.8c0-8.533333 4.266667-12.8 12.8-12.8h315.733334c8.533333 0 12.8 4.266667 12.8 12.8v59.733333z"  /></svg>