<?xml version="1.0" standalone="no"?><!DOCTYPE svg PUBLIC "-//W3C//DTD SVG 1.1//EN" "http://www.w3.org/Graphics/SVG/1.1/DTD/svg11.dtd"><svg t="1595407801141" class="icon" viewBox="0 0 1024 1024" version="1.1" xmlns="http://www.w3.org/2000/svg" p-id="39792" xmlns:xlink="http://www.w3.org/1999/xlink" width="48" height="48"><defs><style type="text/css"></style></defs><path d="M283.648 424.789333H166.954667A2802.133333 2802.133333 0 0 1 28.458667 768h445.013333a2567.850667 2567.850667 0 0 0-36.864-129.28 1830.912 1830.912 0 0 0-44.672-127.018667H283.648a3890.005333 3890.005333 0 0 1 54.186667 169.386667H185.344a1445.546667 1445.546667 0 0 0 46.890667-107.52 2126.933333 2126.933333 0 0 0 51.370666-148.778667z m104.96 61.866667H512A3163.093333 3163.093333 0 0 1 397.525333 256H284.202667c16 43.093333 33.28 85.418667 51.925333 127.018667a1352.533333 1352.533333 0 0 0 52.48 103.637333z m-388.608 0h122.837333A1533.781333 1533.781333 0 0 0 227.797333 256H113.322667A1281.706667 1281.706667 0 0 1 70.4 354.048 2258.346667 2258.346667 0 0 1 0 486.656z" fill="#FF3C29" p-id="39793"></path><path d="M584.917333 538.709333V768h413.44v-229.290667h-413.44zM554.666667 417.408h102.997333c4.096-11.136 8.192-22.613333 12.288-34.56h79.402667v49.024h-190.08v83.456H1024v-83.456h-175.744V382.890667h155.733333V299.392h-155.733333V256h-98.901333v43.392H692.48c2.389333-11.861333 4.608-24.106667 6.698667-36.693333H600.746667A976.170667 976.170667 0 0 1 554.666667 417.408z m126.037333 205.354667h222.378667v61.184h-222.378667v-61.184z" fill="#212121" p-id="39794"></path></svg>