<?xml version="1.0" standalone="no"?><!DOCTYPE svg PUBLIC "-//W3C//DTD SVG 1.1//EN" "http://www.w3.org/Graphics/SVG/1.1/DTD/svg11.dtd"><svg t="1595407807049" class="icon" viewBox="0 0 1024 1024" version="1.1" xmlns="http://www.w3.org/2000/svg" p-id="39912" xmlns:xlink="http://www.w3.org/1999/xlink" width="48" height="48"><defs><style type="text/css"></style></defs><path d="M251.733333 674.133333c-8.533333-4.266667-17.066667-8.533333-25.6-8.533333H128c-25.6 0-42.666667-17.066667-42.666667-42.666667V401.066667c0-25.6 17.066667-42.666667 42.666667-42.666667h98.133333c8.533333 0 17.066667-4.266667 25.6-8.533333L443.733333 213.333333a42.666667 42.666667 0 0 1 68.266667 34.133334v533.333333c0 34.133333-38.4 55.466667-68.266667 34.133333l-192-140.8zM750.933333 226.133333c17.066667-12.8 42.666667-12.8 55.466667 0 85.333333 76.8 128 179.2 128 285.866667s-46.933333 213.333333-128 285.866667c-17.066667 12.8-42.666667 12.8-55.466667 0-17.066667-12.8-17.066667-38.4 0-51.2 68.266667-64 106.666667-145.066667 106.666667-234.666667s-38.4-174.933333-106.666667-234.666667c-17.066667-17.066667-17.066667-38.4 0-51.2z m-140.8 128c17.066667-12.8 42.666667-12.8 55.466667 0 46.933333 42.666667 72.533333 98.133333 72.533333 157.866667 0 59.733333-25.6 115.2-72.533333 157.866667-17.066667 12.8-42.666667 12.8-55.466667 0-17.066667-12.8-17.066667-38.4 0-51.2 29.866667-29.866667 46.933333-64 46.933334-106.666667 0-38.4-17.066667-76.8-46.933334-106.666667-17.066667-12.8-17.066667-34.133333 0-51.2z" fill="#FF3C29" p-id="39913"></path></svg>