<?xml version="1.0" standalone="no"?><!DOCTYPE svg PUBLIC "-//W3C//DTD SVG 1.1//EN" "http://www.w3.org/Graphics/SVG/1.1/DTD/svg11.dtd"><svg t="1595407816516" class="icon" viewBox="0 0 1024 1024" version="1.1" xmlns="http://www.w3.org/2000/svg" p-id="40150" xmlns:xlink="http://www.w3.org/1999/xlink" width="48" height="48"><defs><style type="text/css"></style></defs><path d="M490.666667 217.6c12.8 4.266667 21.333333 17.066667 21.333333 34.133333v520.533334c0 12.8-8.533333 25.6-21.333333 34.133333-12.8 4.266667-29.866667 4.266667-42.666667-4.266667l-183.466667-140.8H123.733333c-21.333333 0-38.4-17.066667-38.4-38.4V401.066667c0-21.333333 17.066667-38.4 38.4-38.4h140.8l183.466667-140.8c12.8-8.533333 29.866667-12.8 42.666667-4.266667z m-55.466667 110.933333l-132.266667 102.4c-8.533333 4.266667-17.066667 8.533333-25.6 8.533334H162.133333v149.333333h115.2c8.533333 0 17.066667 4.266667 25.6 8.533333l132.266667 102.4V328.533333z" fill="#FF3C29" p-id="40151"></path><path d="M750.933333 226.133333c17.066667-12.8 42.666667-12.8 55.466667 0 85.333333 76.8 128 179.2 128 285.866667s-46.933333 213.333333-128 285.866667c-17.066667 12.8-42.666667 12.8-55.466667 0-17.066667-12.8-17.066667-38.4 0-51.2 68.266667-64 106.666667-145.066667 106.666667-234.666667s-38.4-174.933333-106.666667-234.666667c-17.066667-17.066667-17.066667-38.4 0-51.2z m-140.8 128c17.066667-12.8 42.666667-12.8 55.466667 0 46.933333 42.666667 72.533333 98.133333 72.533333 157.866667 0 59.733333-25.6 115.2-72.533333 157.866667-17.066667 12.8-42.666667 12.8-55.466667 0-17.066667-12.8-17.066667-38.4 0-51.2 29.866667-29.866667 46.933333-64 46.933334-106.666667 0-38.4-17.066667-76.8-46.933334-106.666667-17.066667-12.8-17.066667-34.133333 0-51.2z" p-id="40152"></path></svg>