<svg width="20" height="20" viewBox="0 0 20 20" fill="none" xmlns="http://www.w3.org/2000/svg">
<path d="M10 0.869565C4.9574 0.869565 0.869565 4.9574 0.869565 10C0.869565 15.0426 4.9574 19.1304 10 19.1304V20C4.47715 20 0 15.5228 0 10C0 4.47715 4.47715 0 10 0C15.5228 0 20 4.47715 20 10C20 11.168 19.7996 12.2901 19.4309 13.3333L18.611 13.0435C18.9473 12.0921 19.1304 11.0679 19.1304 10C19.1304 4.9574 15.0426 0.869565 10 0.869565Z" fill="#212121"/>
<path d="M9.58301 7.70829L6.41634 5.33329L6.91634 4.66663L9.99967 6.97913L13.083 4.66663L13.583 5.33329L10.4163 7.70829V8.74996H14.1663V9.58329H10.4163V11.25H14.1663V12.0833H10.4163V15H9.58301V12.0833H5.83301V11.25H9.58301V9.58329H5.83301V8.74996H9.58301V7.70829Z" fill="#212121"/>
<path d="M16.1845 13.931C16.3797 13.7357 16.6963 13.7357 16.8916 13.931L17.7352 14.7747C17.9305 14.9699 17.9305 15.2865 17.7352 15.4818L14.828 18.3891L13.4474 18.7342C13.1362 18.812 12.8542 18.5301 12.932 18.2188L13.2772 16.8383L16.1845 13.931ZM16.538 14.756L14.0296 17.2643L13.9055 17.7607L14.4019 17.6366L16.9103 15.1282L16.538 14.756Z" fill="#1A66FF"/>
<path d="M18.3337 20H11.667V19.1666H18.3337V20Z" fill="#1A66FF"/>
</svg>
