<svg width="20" height="20" viewBox="0 0 20 20" fill="none" xmlns="http://www.w3.org/2000/svg">
<path d="M19.1667 4.16671V6.77172C17.729 7.14176 16.6667 8.44684 16.6667 10C16.6667 11.5532 17.729 12.8583 19.1667 13.2284V15.8334H0.833333V13.2284C2.27102 12.8583 3.33333 11.5532 3.33333 10C3.33333 8.44684 2.27102 7.14176 0.833333 6.77172L0.833334 4.16671H19.1667ZM20 4.16671C20 3.70647 19.6269 3.33337 19.1667 3.33337H0.833334C0.373096 3.33337 0 3.70647 0 4.16671V7.50004C1.38071 7.50004 2.5 8.61933 2.5 10C2.5 11.3808 1.38071 12.5 0 12.5V15.8334C0 16.2936 0.373096 16.6667 0.833333 16.6667H19.1667C19.6269 16.6667 20 16.2936 20 15.8334V12.5C18.6193 12.5 17.5 11.3808 17.5 10C17.5 8.61933 18.6193 7.50004 20 7.50004V4.16671Z" fill="#212121"/>
<path d="M9.58366 7.72304L7.2692 6.18007L7.73145 5.48669L10.0003 6.99928L12.2692 5.48669L12.7315 6.18007L10.417 7.72304V8.75005H13.3337V9.58338H10.417V11.25H13.3337V12.0834H10.417V14.1667H9.58366V12.0834H6.66699V11.25H9.58366V9.58338H6.66699V8.75005H9.58366V7.72304Z" fill="#1A66FF"/>
</svg>
