<svg width="20" height="20" viewBox="0 0 20 20" fill="none" xmlns="http://www.w3.org/2000/svg">
<path d="M0 1.30435C0 0.583977 0.583976 0 1.30435 0H18.6957C19.416 0 20 0.583976 20 1.30435V12.6087H19.1304V1.30435C19.1304 1.06422 18.9358 0.869565 18.6957 0.869565H1.30435C1.06422 0.869565 0.869565 1.06422 0.869565 1.30435V18.6957C0.869565 18.9358 1.06422 19.1304 1.30435 19.1304H10V20H1.30435C0.583976 20 0 19.416 0 18.6957V1.30435Z" fill="#212121"/>
<path d="M16.961 13.8721L19.7556 16.6667L16.961 19.4613L16.3717 18.8721L18.1604 17.0834H13.333V16.25H18.1604L16.3717 14.4613L16.961 13.8721Z" fill="#1A66FF"/>
<path d="M15.8337 7.08329C15.8337 7.44514 15.7019 7.7916 15.461 8.11133C15.6933 8.45652 15.8337 8.84754 15.8337 9.27665C15.8337 9.74099 15.6721 10.1595 15.4018 10.5271C15.6692 10.8925 15.8337 11.3123 15.8337 11.7766C15.8337 12.81 15.0334 13.6165 14.0159 14.1396C12.9682 14.6783 11.548 15 10.0003 15C8.45266 15 7.0325 14.6783 5.98471 14.1396C4.96721 13.6165 4.16699 12.81 4.16699 11.7766C4.16699 11.3123 4.3314 10.8925 4.59881 10.5271C4.32856 10.1595 4.16699 9.74099 4.16699 9.27665C4.16699 8.84754 4.30737 8.45652 4.53967 8.11133C4.29878 7.7916 4.16699 7.44514 4.16699 7.08329C4.16699 5.47246 6.77866 4.16663 10.0003 4.16663C13.222 4.16663 15.8337 5.47246 15.8337 7.08329ZM13.7524 8.40033C14.7195 7.91681 15.0003 7.40302 15.0003 7.08329C15.0003 6.76357 14.7195 6.24977 13.7524 5.76625C12.8352 5.30766 11.5098 4.99996 10.0003 4.99996C8.49081 4.99996 7.16541 5.30766 6.24821 5.76625C5.28118 6.24977 5.00033 6.76357 5.00033 7.08329C5.00033 7.40302 5.28118 7.91681 6.24821 8.40033C7.16541 8.85893 8.49081 9.16663 10.0003 9.16663C11.5098 9.16663 12.8352 8.85893 13.7524 8.40033ZM10.0003 9.99996C7.96015 9.99996 6.1646 9.47628 5.12201 8.6831C5.00017 8.88691 4.94477 9.087 4.94477 9.27665C4.94477 9.78917 5.36333 10.3823 6.31633 10.8723C7.23905 11.3466 8.5411 11.6516 10.0003 11.6516C11.4595 11.6516 12.7616 11.3466 13.6843 10.8723C14.6373 10.3823 15.0559 9.78917 15.0559 9.27665C15.0559 9.087 15.0005 8.88691 14.8786 8.6831C13.8361 9.47628 12.0405 9.99996 10.0003 9.99996ZM5.16658 11.1128C5.01361 11.3409 4.94477 11.5652 4.94477 11.7766C4.94477 12.2892 5.36333 12.8823 6.31633 13.3723C7.23905 13.8466 8.5411 14.1516 10.0003 14.1516C11.4595 14.1516 12.7616 13.8466 13.6843 13.3723C14.6373 12.8823 15.0559 12.2892 15.0559 11.7766C15.0559 11.5652 14.987 11.3409 14.8341 11.1128C14.5893 11.3115 14.3118 11.4875 14.0159 11.6396C12.9682 12.1783 11.548 12.5 10.0003 12.5C8.45266 12.5 7.0325 12.1783 5.98471 11.6396C5.68885 11.4875 5.41137 11.3115 5.16658 11.1128Z" fill="#212121"/>
</svg>
