<svg width="86" height="84" viewBox="0 0 86 84" fill="none" xmlns="http://www.w3.org/2000/svg">
<circle cx="43.0003" cy="42" r="28.5" transform="rotate(-30 43.0003 42)" stroke="#E6E7EB" stroke-width="3"/>
<circle cx="42.9995" cy="41.9999" r="23.5" transform="rotate(-30 42.9995 41.9999)" stroke="#E6E7EB"/>
<rect x="10.6531" y="47.9737" width="62" height="22" transform="rotate(-30 10.6531 47.9737)" fill="white" stroke="#E6E7EB" stroke-width="2"/>
<path d="M35.9047 45.6713L33.5047 41.5144L25.8144 45.9544L26.2344 46.6818L33.1661 42.6798L34.7321 45.3922L28.9643 48.7222L28.0763 47.1842L27.3281 47.6162L30.4781 53.0721C30.9701 53.9243 31.6378 54.1208 32.4796 53.6348L38.1122 50.3828C38.5367 50.11 38.8136 49.7977 38.9162 49.4474C39.0097 49.0332 38.7423 48.1622 38.1023 46.8135L37.2428 47.0049C37.8404 48.1841 38.0893 48.9272 37.9895 49.2342C37.9056 49.4489 37.7338 49.6313 37.4843 49.7753L32.2674 52.7873C31.7894 53.0633 31.4123 52.9623 31.1483 52.505L29.3783 49.4393L35.9047 45.6713ZM39.0676 38.9816L39.4816 39.6987L42.2044 38.1267L42.7744 39.1139L40.4049 40.4819L42.1029 43.4229L44.4308 42.0789C44.7885 42.8424 44.985 43.5188 45.0307 44.102C44.2519 44.0251 43.4831 43.8455 42.7122 43.5423L42.3687 44.2672C43.2007 44.6043 44.0575 44.8163 44.9227 44.8988C44.7086 45.6321 44.0972 46.3731 43.1032 47.0994L43.8213 47.5993C44.9248 46.7266 45.5922 45.8425 45.8234 44.9469C47.297 44.9552 48.7852 44.581 50.2941 43.8345L50.0672 43.0094C48.6638 43.7227 47.2723 44.0965 45.9031 44.1249C45.8837 43.4433 45.6463 42.6243 45.1895 41.6409L47.6628 40.2129L45.9648 37.2719L43.533 38.6759L42.963 37.6887L45.8209 36.0387L45.4069 35.3216L42.549 36.9716L41.937 35.9116L41.1784 36.3496L41.7904 37.4096L39.0676 38.9816ZM46.5662 39.9454L44.8306 40.9474C44.7826 40.8643 44.745 40.7752 44.697 40.692L43.917 39.341L45.6422 38.345L46.5662 39.9454ZM44.072 41.3854L42.4196 42.3394L41.4956 40.739L43.1584 39.779L43.9384 41.13C43.9864 41.2132 44.024 41.3023 44.072 41.3854ZM38.7198 42.7712L42.0678 48.5701L42.8161 48.1381L38.7781 41.1441C38.7486 40.205 38.6267 39.25 38.4185 38.2894L37.5259 38.3752C37.9958 40.2932 38.0564 42.1981 37.7076 44.09L38.413 44.7358C38.5619 44.0817 38.6573 43.4308 38.7198 42.7712ZM49.6013 36.3225L52.2409 34.7985L53.2909 36.6171L50.6513 38.1411L49.6013 36.3225ZM51.0057 38.851L53.6869 37.303L55.4449 40.348L56.214 39.904L54.456 36.859L57.2827 35.227L58.3267 37.0353C58.5787 37.4718 58.5072 37.804 58.1331 38.02C57.7798 38.224 57.3833 38.4252 56.9556 38.6444L57.579 39.2683L58.7741 38.5783C59.5016 38.1583 59.6553 37.5846 59.2353 36.8571L54.7413 29.0733L46.9991 33.5433L49.8791 38.5316C50.6803 39.9673 51.0153 41.3396 50.8842 42.6486L51.7498 42.8278C51.9109 41.5708 51.6594 40.2472 51.0057 38.851ZM56.8867 34.5411L54.06 36.1731L53.01 34.3545L55.8367 32.7225L56.8867 34.5411ZM55.4347 32.0262L52.608 33.6582L51.576 31.8707L54.4027 30.2387L55.4347 32.0262ZM50.8069 32.3147L51.8389 34.1022L49.1993 35.6262L48.1673 33.8387L50.8069 32.3147Z" fill="#E6E7EB"/>
</svg>
