<svg width="20" height="20" viewBox="0 0 20 20" fill="none" xmlns="http://www.w3.org/2000/svg">
<path d="M19.9131 15.5045L19.0951 4.40619C19.0804 2.02066 17.2447 0.083252 14.9884 0.083252H5.00867C2.7545 0.083252 0.918784 2.02066 0.901962 4.40619L0.0860872 15.5045C0.0839844 15.5245 0.0839844 15.5424 0.0839844 15.5624C0.0839844 17.9636 1.92601 19.9166 4.1907 19.9166H15.8106C18.0753 19.9166 19.9173 17.9636 19.9173 15.5624C19.9152 15.5424 19.9131 15.5223 19.9131 15.5045ZM9.99855 8.96545C7.47733 8.96545 5.42502 6.78949 5.42502 4.11636C5.42502 3.70391 5.74044 3.37172 6.12735 3.37172C6.51636 3.37172 6.82967 3.70614 6.82967 4.11636C6.82967 5.96904 8.25115 7.47616 9.99855 7.47616C11.746 7.47616 13.1674 5.96904 13.1674 4.11636C13.1674 3.70391 13.4828 3.37172 13.8698 3.37172C14.2567 3.37172 14.5721 3.70614 14.5721 4.11636C14.5721 6.78949 12.5198 8.96545 9.99855 8.96545Z" fill="url(#paint0_linear)"/>
<defs>
<linearGradient id="paint0_linear" x1="0.14541" y1="1.69516" x2="25.1796" y2="11.9487" gradientUnits="userSpaceOnUse">
<stop offset="0.351581" stop-color="white"/>
<stop offset="0.802083" stop-color="white" stop-opacity="0.8"/>
</linearGradient>
</defs>
</svg>
