<svg width="20" height="19" viewBox="0 0 20 19" fill="none" xmlns="http://www.w3.org/2000/svg">
<path d="M1.91929 3.75109L5.60789 6.32295L9.28419 0.940405C9.36543 0.821336 9.47268 0.724282 9.59703 0.657318C9.72137 0.590355 9.85921 0.55542 9.99907 0.55542C10.1389 0.55542 10.2768 0.590355 10.4011 0.657318C10.5255 0.724282 10.6327 0.821336 10.714 0.940405L14.3903 6.32295L18.0789 3.75109C18.2185 3.65395 18.3817 3.60064 18.5494 3.59745C18.717 3.59426 18.882 3.64134 19.0249 3.7331C19.1678 3.82487 19.2826 3.9575 19.3557 4.11531C19.4288 4.27313 19.4572 4.44953 19.4375 4.62368L17.9946 17.4527C17.9694 17.6761 17.8667 17.8821 17.7059 18.0316C17.5452 18.1811 17.3376 18.2637 17.1225 18.2638H2.87569C2.66058 18.2637 2.45296 18.1811 2.29221 18.0316C2.13146 17.8821 2.02876 17.6761 2.0036 17.4527L0.560652 4.62277C0.541155 4.44869 0.569685 4.27241 0.642873 4.11475C0.716062 3.95708 0.830853 3.8246 0.973697 3.73296C1.11654 3.64131 1.28147 3.59432 1.44902 3.59753C1.61658 3.60074 1.77975 3.65403 1.91929 3.75109ZM9.99907 12.7526C10.4649 12.7526 10.9117 12.5591 11.2411 12.2146C11.5705 11.87 11.7556 11.4028 11.7556 10.9156C11.7556 10.4284 11.5705 9.96109 11.2411 9.61658C10.9117 9.27207 10.4649 9.07852 9.99907 9.07852C9.53323 9.07852 9.08646 9.27207 8.75706 9.61658C8.42766 9.96109 8.2426 10.4284 8.2426 10.9156C8.2426 11.4028 8.42766 11.87 8.75706 12.2146C9.08646 12.5591 9.53323 12.7526 9.99907 12.7526Z" fill="url(#paint0_linear)"/>
<defs>
<linearGradient id="paint0_linear" x1="0.613188" y1="1.99463" x2="23.9925" y2="12.2087" gradientUnits="userSpaceOnUse">
<stop offset="0.351581" stop-color="white"/>
<stop offset="0.802083" stop-color="white" stop-opacity="0.8"/>
</linearGradient>
</defs>
</svg>
