<svg width="18" height="20" viewBox="0 0 18 20" fill="none" xmlns="http://www.w3.org/2000/svg">
<path d="M16.1598 0.0832534H1.83828C1.66254 0.0832533 1.48851 0.118666 1.32614 0.18747C1.16378 0.256273 1.01624 0.35712 0.891974 0.484253C0.767703 0.611385 0.669126 0.762313 0.601871 0.92842C0.534616 1.09453 0.5 1.27256 0.5 1.45235V18.5475C0.5 18.7273 0.534616 18.9053 0.601871 19.0714C0.669126 19.2375 0.767703 19.3885 0.891974 19.5156C1.01624 19.6427 1.16378 19.7436 1.32614 19.8124C1.48851 19.8812 1.66254 19.9166 1.83828 19.9166H12.0905C13.5239 19.9122 14.8973 19.3277 15.9109 18.2908C16.9244 17.254 17.4957 15.8489 17.5 14.3825V1.45333C17.5001 1.27329 17.4655 1.09499 17.3982 0.928645C17.3309 0.762298 17.2322 0.611168 17.1077 0.483906C16.9832 0.356644 16.8354 0.255751 16.6728 0.187001C16.5101 0.118251 16.3358 0.0829961 16.1598 0.0832534ZM9.38619 14.5566H5.52142C5.32115 14.5494 5.13144 14.4629 4.99225 14.3154C4.85306 14.1679 4.77527 13.9709 4.77527 13.7659C4.77527 13.5609 4.85306 13.3639 4.99225 13.2164C5.13144 13.0689 5.32115 12.9825 5.52142 12.9753H9.38619C9.58646 12.9825 9.77618 13.0689 9.91537 13.2164C10.0546 13.3639 10.1323 13.5609 10.1323 13.7659C10.1323 13.9709 10.0546 14.1679 9.91537 14.3154C9.77618 14.4629 9.58646 14.5494 9.38619 14.5566ZM12.4767 10.6028H5.52142C5.31645 10.6028 5.11987 10.5195 4.97493 10.3712C4.82999 10.223 4.74857 10.0219 4.74857 9.81216C4.74857 9.60246 4.82999 9.40136 4.97493 9.25308C5.11987 9.10481 5.31645 9.0215 5.52142 9.0215H12.4767C12.6816 9.0215 12.8782 9.10481 13.0232 9.25308C13.1681 9.40136 13.2495 9.60246 13.2495 9.81216C13.2495 10.0219 13.1681 10.223 13.0232 10.3712C12.8782 10.5195 12.6816 10.6028 12.4767 10.6028ZM12.4767 6.65003H5.52142C5.32115 6.64283 5.13144 6.55637 4.99225 6.40888C4.85306 6.26139 4.77527 6.06439 4.77527 5.85938C4.77527 5.65437 4.85306 5.45737 4.99225 5.30988C5.13144 5.16239 5.32115 5.07593 5.52142 5.06872H12.4767C12.6769 5.07593 12.8667 5.16239 13.0058 5.30988C13.145 5.45737 13.2228 5.65437 13.2228 5.85938C13.2228 6.06439 13.145 6.26139 13.0058 6.40888C12.8667 6.55637 12.6769 6.64283 12.4767 6.65003Z" fill="url(#paint0_linear)"/>
<defs>
<linearGradient id="paint0_linear" x1="0.552651" y1="1.69516" x2="22.8607" y2="9.52685" gradientUnits="userSpaceOnUse">
<stop offset="0.351581" stop-color="white"/>
<stop offset="0.802083" stop-color="white" stop-opacity="0.8"/>
</linearGradient>
</defs>
</svg>
