<svg width="12" height="12" viewBox="0 0 12 12" fill="none" xmlns="http://www.w3.org/2000/svg">
<path d="M8.33333 8.91667V8.33333H6.58333V6.58333H8.33333V7.75H9.5V8.91667H8.91667V10.0833H7.75V11.25H6.58333V9.5H7.75V8.91667H8.33333ZM11.25 11.25H8.91667V10.0833H10.0833V8.91667H11.25V11.25ZM0.75 0.75H5.41667V5.41667H0.75V0.75ZM6.58333 0.75H11.25V5.41667H6.58333V0.75ZM0.75 6.58333H5.41667V11.25H0.75V6.58333ZM9.5 6.58333H11.25V7.75H9.5V6.58333ZM2.5 2.5V3.66667H3.66667V2.5H2.5ZM2.5 8.33333V9.5H3.66667V8.33333H2.5ZM8.33333 2.5V3.66667H9.5V2.5H8.33333Z" fill="white"/>
</svg>
