<svg width="28" height="28" viewBox="0 0 28 28" fill="none" xmlns="http://www.w3.org/2000/svg">
<path d="M25.608 15.1666H12.833V2.39159C13.2168 2.35309 13.6065 2.33325 13.9997 2.33325C20.4432 2.33325 25.6663 7.55642 25.6663 13.9999C25.6663 14.3931 25.6465 14.7828 25.608 15.1666ZM15.1663 4.73892V12.8333H23.2607C23.001 10.7771 22.0647 8.86581 20.5992 7.40036C19.1338 5.93491 17.2225 4.9986 15.1663 4.73892Z" fill="#19BE6B"/>
<path d="M13.9997 25.6667C7.55617 25.6667 2.33301 20.4435 2.33301 14C2.33301 8.77568 5.76651 4.35401 10.4997 2.86768V5.34568C8.49409 6.16006 6.83377 7.646 5.80274 9.54931C4.77171 11.4526 4.43404 13.655 4.84747 15.7798C5.26091 17.9046 6.39976 19.8197 8.06923 21.1976C9.7387 22.5754 11.835 23.3304 13.9997 23.3333C15.8591 23.3333 17.6761 22.7781 19.218 21.7388C20.7599 20.6995 21.9563 19.2236 22.654 17.5H25.132C23.6457 22.2332 19.224 25.6667 13.9997 25.6667Z" fill="#19BE6B"/>
</svg>
