<svg width="28" height="28" viewBox="0 0 28 28" fill="none" xmlns="http://www.w3.org/2000/svg">
<path d="M14 13.9999C11.4227 13.9999 9.33333 11.9106 9.33333 9.33325C9.33333 6.75592 11.4227 4.66658 14 4.66658C16.5773 4.66658 18.6667 6.75592 18.6667 9.33325C18.6667 11.9106 16.5773 13.9999 14 13.9999ZM14 16.3333C17.866 16.3333 21 13.1992 21 9.33325C21 5.46726 17.866 2.33325 14 2.33325C10.134 2.33325 7 5.46726 7 9.33325C7 13.1992 10.134 16.3333 14 16.3333Z" fill="#FF661A"/>
<path d="M2.33301 15.1666C2.33301 13.8779 3.37768 12.8333 4.66634 12.8333H10.4997V15.1666H4.66634V23.3333H23.333V15.1666H17.4997V12.8333H23.333C24.6217 12.8333 25.6663 13.8779 25.6663 15.1666V23.3333C25.6663 24.6219 24.6217 25.6666 23.333 25.6666H4.66634C3.37768 25.6666 2.33301 24.6219 2.33301 23.3333V15.1666Z" fill="#FF661A"/>
<rect x="12.833" y="17.5" width="2.33333" height="4.66667" fill="#FF661A"/>
</svg>
