<svg width="24" height="24" viewBox="0 0 24 24" fill="none" xmlns="http://www.w3.org/2000/svg">
<path d="M12.75 14.9628H15V16.4814H12.75V18H11.25V16.4814H9V14.9628H11.25V14.2035H9V12.6849H10.9395L9.348 11.0744L10.41 10L12 11.6112L13.5908 10L14.652 11.0744L13.0605 12.6849H15V14.2035H12.75V14.9628Z" fill="#FB1732"/>
<path d="M3.1 2C2.49249 2 2 2.49248 2 3.1V9.9C2 10.5075 2.49249 11 3.1 11H5V20.9C5 21.5075 5.4925 22 6.1 22H17.9C18.5075 22 19 21.5075 19 20.9V11H20.9C21.5075 11 22 10.5075 22 9.9V3.1C22 2.49248 21.5075 2 20.9 2H3.1ZM19 9V7.1C19 6.49248 18.5075 6 17.9 6H6.1C5.49248 6 5 6.4925 5 7.1V9H4V4H20V9H19ZM7 20V8H17V20H7Z" fill="#FB1732"/>
</svg>
