<?xml version="1.0" standalone="no"?><!DOCTYPE svg PUBLIC "-//W3C//DTD SVG 1.1//EN" "http://www.w3.org/Graphics/SVG/1.1/DTD/svg11.dtd"><svg t="1595407810982" class="icon" viewBox="0 0 1024 1024" version="1.1" xmlns="http://www.w3.org/2000/svg" p-id="40031" xmlns:xlink="http://www.w3.org/1999/xlink" width="48" height="48"><defs><style type="text/css"></style></defs><path d="M900.266667 665.6c-21.333333 0-38.4-8.533333-55.466667-21.333333-12.8-12.8-21.333333-34.133333-21.333333-55.466667V396.8c0-81.066667-34.133333-162.133333-89.6-217.6C674.133333 119.466667 593.066667 85.333333 512 85.333333s-162.133333 34.133333-217.6 89.6-93.866667 136.533333-93.866667 221.866667v192c0 21.333333-8.533333 38.4-21.333333 55.466667-12.8 12.8-34.133333 21.333333-55.466667 21.333333s-38.4 17.066667-38.4 38.4 17.066667 38.4 38.4 38.4h776.533334c21.333333 0 38.4-17.066667 38.4-38.4s-17.066667-38.4-38.4-38.4z m-640 0c12.8-21.333333 21.333333-51.2 21.333333-76.8V396.8c0-59.733333 25.6-119.466667 68.266667-166.4 42.666667-42.666667 102.4-68.266667 166.4-68.266667s119.466667 25.6 166.4 68.266667c42.666667 42.666667 68.266667 102.4 68.266666 166.4v192c0 25.6 8.533333 55.466667 21.333334 76.8h-512zM597.333333 827.733333c-17.066667-12.8-42.666667-4.266667-51.2 12.8-4.266667 4.266667-8.533333 12.8-12.8 12.8-4.266667 4.266667-12.8 4.266667-21.333333 4.266667s-12.8 0-21.333333-4.266667c-4.266667-4.266667-12.8-8.533333-12.8-12.8-12.8-17.066667-34.133333-25.6-51.2-12.8-17.066667 12.8-25.6 34.133333-12.8 51.2 8.533333 17.066667 25.6 34.133333 42.666666 42.666667 17.066667 8.533333 38.4 17.066667 59.733334 17.066667s38.4-4.266667 59.733333-17.066667c17.066667-8.533333 34.133333-25.6 42.666667-42.666667 4.266667-17.066667 0-38.4-21.333334-51.2z" fill="#FF1F2C" p-id="40032"></path></svg>