<?xml version="1.0" standalone="no"?><!DOCTYPE svg PUBLIC "-//W3C//DTD SVG 1.1//EN" "http://www.w3.org/Graphics/SVG/1.1/DTD/svg11.dtd"><svg t="1595407779240" class="icon" viewBox="0 0 1024 1024" version="1.1" xmlns="http://www.w3.org/2000/svg" p-id="39552" xmlns:xlink="http://www.w3.org/1999/xlink" width="48" height="48"><defs><style type="text/css"></style></defs><path d="M733.866667 768h166.4c4.266667-8.533333 8.533333-12.8 12.8-21.333333l17.066666 21.333333H1024c-25.6-29.866667-51.2-59.733333-72.533333-89.6 29.866667-68.266667 51.2-136.533333 64-209.066667h-196.266667V375.466667h93.866667v12.8c0 12.8-4.266667 25.6-8.533334 34.133333-4.266667 8.533333-12.8 17.066667-21.333333 25.6H981.333333c4.266667-8.533333 8.533333-21.333333 12.8-34.133333 4.266667-17.066667 4.266667-29.866667 4.266667-46.933334V302.933333H725.333333V768z m-183.466667-401.066667v72.533334h42.666667v89.6l-42.666667 8.533333v81.066667l42.666667-8.533334v8.533334c0 25.6-4.266667 55.466667-8.533334 81.066666-4.266667 21.333333-12.8 42.666667-25.6 64h102.4c4.266667-21.333333 12.8-38.4 12.8-59.733333 4.266667-29.866667 4.266667-55.466667 4.266667-85.333333v-29.866667l38.4-8.533333v-81.066667l-34.133333 12.8v-68.266667h42.666666V366.933333h-42.666666V256l-89.6 42.666667v68.266666h-42.666667z m268.8 375.466667v-140.8c12.8 25.6 25.6 51.2 42.666667 76.8-12.8 21.333333-25.6 42.666667-42.666667 64z m102.4-204.8c-4.266667 21.333333-12.8 46.933333-21.333333 68.266667-8.533333-17.066667-17.066667-29.866667-25.6-46.933334h-55.466667v-17.066666h102.4z" fill="#212121" p-id="39553"></path><path d="M204.8 473.6v76.8H256c-4.266667 38.4-12.8 76.8-29.866667 115.2-17.066667 38.4-34.133333 72.533333-55.466666 106.666667h106.666666c29.866667-51.2 46.933333-102.4 55.466667-162.133334 8.533333 55.466667 21.333333 110.933333 42.666667 162.133334H469.333333c-17.066667-29.866667-34.133333-64-42.666666-98.133334-8.533333-38.4-17.066667-85.333333-17.066667-123.733333H341.333333h132.266667v-76.8h-21.333333V311.466667H341.333333V256L256 298.666667v12.8H209.066667v76.8H256v85.333333H204.8zM68.266667 768h72.533333V256L68.266667 298.666667v469.333333zM0 657.066667h51.2c4.266667-51.2 4.266667-98.133333 4.266667-149.333334v-170.666666H8.533333c0 106.666667-4.266667 213.333333-8.533333 320z m149.333333-42.666667h46.933334c0-93.866667 0-183.466667-4.266667-277.333333h-42.666667c0 93.866667 4.266667 183.466667 0 277.333333z m221.866667-226.133333v85.333333H341.333333v-85.333333h29.866667z" fill="#FF3C29" p-id="39554"></path></svg>