<?xml version="1.0" standalone="no"?><!DOCTYPE svg PUBLIC "-//W3C//DTD SVG 1.1//EN" "http://www.w3.org/Graphics/SVG/1.1/DTD/svg11.dtd"><svg t="1603176332679" class="icon" viewBox="0 0 1024 1024" version="1.1" xmlns="http://www.w3.org/2000/svg" p-id="6095" xmlns:xlink="http://www.w3.org/1999/xlink" width="48" height="48"><defs><style type="text/css">@font-face { font-family: element-icons; src: url("chrome-extension://moombeodfomdpjnpocobemoiaemednkg/fonts/element-icons.woff") format("woff"), url("chrome-extension://moombeodfomdpjnpocobemoiaemednkg/fonts/element-icons.ttf ") format("truetype"); }
</style></defs><path d="M0 213.333333m298.666667 0l426.666666 0q298.666667 0 298.666667 298.666667l0 0q0 298.666667-298.666667 298.666667l-426.666666 0q-298.666667 0-298.666667-298.666667l0 0q0-298.666667 298.666667-298.666667Z" fill="#cccccc" p-id="6096"></path><path d="M248.96 344.32c-5.888 16.64-12.672 33.152-20.352 49.536h77.568V326.656h28.416v67.2h128.64v26.88H334.592v24.96a409.728 409.728 0 0 1-4.992 51.84h158.592v26.496H345.344c18.944 55.296 68.48 98.304 148.608 129.024l-15.36 24.192c-83.712-36.096-135.936-85.12-156.672-147.072a202.666667 202.666667 0 0 1-31.104 65.664c-26.624 35.072-70.144 62.336-130.56 81.792l-14.976-23.424c60.416-20.224 102.4-46.08 125.952-77.568a193.28 193.28 0 0 0 23.808-52.608H152.192v-26.496H300.8c2.816-14.336 4.608-31.616 5.376-51.84v-24.96H214.4c-14.08 23.296-29.184 42.368-45.312 57.216l-23.424-20.352c34.304-30.464 60.16-71.552 77.568-123.264l25.728 9.984z m357.888 78.72a405.205333 405.205333 0 0 1-57.6 91.776l-22.272-16.128a356.693333 356.693333 0 0 0 56.064-87.552l23.808 11.904z m77.184 59.52c-17.152-21.76-34.56-40.832-52.224-57.216l16.896-16.512c15.104 12.032 32.896 30.464 53.376 55.296l-18.048 18.432z m-102.528 23.04c14.08 11.008 29.184 23.936 45.312 38.784a366.08 366.08 0 0 0 22.656-56.448l23.808 9.984a362.24 362.24 0 0 1-26.112 66.048c16.896 16.384 32.256 32.64 46.08 48.768l-19.584 21.888a1146.88 1146.88 0 0 0-40.704-45.312 264.277333 264.277333 0 0 1-90.624 86.016l-16.896-24.576a241.536 241.536 0 0 0 87.552-81.792 622.464 622.464 0 0 0-48.768-43.776l17.28-19.584z m39.552-182.016c6.144 14.08 11.904 28.544 17.28 43.392h72.192v26.496h-177.792v-26.496h78.72a321.408 321.408 0 0 0-19.2-38.784l28.8-4.608z m140.16 91.776l-8.832 26.88c9.216 39.168 21.12 73.344 35.712 102.528 18.688-38.144 28.8-81.28 30.336-129.408h-57.216z m11.904 155.52a519.338667 519.338667 0 0 1-35.712-92.16 356.650667 356.650667 0 0 1-22.272 37.632l-17.664-21.12c27.136-42.752 45.312-99.712 54.528-170.88l27.648 4.608c-2.816 19.456-6.528 39.296-11.136 59.52h107.904v26.88h-32.64c-2.304 61.184-15.872 113.536-40.704 157.056 22.016 35.328 48.384 62.464 79.104 81.408l-16.128 24.192c-30.464-19.456-56.576-46.592-78.336-81.408-24.32 33.024-55.68 60.544-94.08 82.56l-15.744-24.96c40.96-21.76 72.704-49.536 95.232-83.328z" fill="#ffffff" p-id="6097"></path></svg>