<svg width="36" height="36" viewBox="0 0 36 36" fill="none" xmlns="http://www.w3.org/2000/svg">
<circle cx="18" cy="18" r="18" fill="#FF6F29"/>
<path d="M24 16.0556C24.9 16.0556 25.5 15.4333 25.5 14.5C25.5 13.5667 24.9 12.9444 24 12.9444H20.4L23.1 10.1444C24 9.52222 24 8.27778 23.4 7.96667C22.8 7.34444 21.9 7.34444 21.3 7.96667L18 11.3889L14.7 7.96667C14.1 7.34444 13.2 7.34444 12.6 7.96667C12 8.27778 12 9.52222 12.6 10.1444L15.3 12.9444H12C11.1 12.9444 10.5 13.5667 10.5 14.5C10.5 15.4333 11.1 16.0556 12 16.0556H16.5V19.1667H12C11.1 19.1667 10.5 19.7889 10.5 20.7222C10.5 21.6556 11.1 22.2778 12 22.2778H16.5V26.9444C16.5 27.8778 17.1 28.5 18 28.5C18.9 28.5 19.5 27.8778 19.5 26.9444V22.2778H24C24.9 22.2778 25.5 21.6556 25.5 20.7222C25.5 19.7889 24.9 19.1667 24 19.1667H19.5V16.0556H24Z" fill="url(#paint0_linear)"/>
<defs>
<linearGradient id="paint0_linear" x1="10.5465" y1="9.20673" x2="30.9129" y2="15.1651" gradientUnits="userSpaceOnUse">
<stop offset="0.351581" stop-color="white"/>
<stop offset="0.801983" stop-color="white" stop-opacity="0.802312"/>
<stop offset="0.802083" stop-color="white" stop-opacity="0.8"/>
</linearGradient>
</defs>
</svg>
