<svg width="36" height="36" viewBox="0 0 36 36" fill="none" xmlns="http://www.w3.org/2000/svg">
<circle cx="18" cy="18" r="18" fill="#367BF5"/>
<path opacity="0.6" d="M25.5 12H12L22.6532 9.4174C23.636 9.17915 24.642 9.71199 24.9971 10.6589L25.5 12Z" fill="url(#paint0_linear)"/>
<path fill-rule="evenodd" clip-rule="evenodd" d="M10 12C9.44772 12 9 12.4477 9 13V26C9 26.5523 9.44772 27 10 27H27.5C28.0523 27 28.5 26.5523 28.5 26V21.7503H25.0973C23.87 21.7503 22.8751 20.7554 22.8751 19.5281V19.4724C22.8751 18.2451 23.87 17.2502 25.0973 17.2502H28.5V13C28.5 12.4477 28.0523 12 27.5 12H10Z" fill="url(#paint1_linear)"/>
<circle cx="25.5" cy="19.5" r="1.5" fill="url(#paint2_linear)"/>
<defs>
<linearGradient id="paint0_linear" x1="12.0418" y1="9.24382" x2="16.5672" y2="17.5847" gradientUnits="userSpaceOnUse">
<stop offset="0.351581" stop-color="white"/>
<stop offset="0.801983" stop-color="white" stop-opacity="0.802312"/>
<stop offset="0.802083" stop-color="white" stop-opacity="0.8"/>
</linearGradient>
<linearGradient id="paint1_linear" x1="9.06039" y1="13.2191" x2="31.4541" y2="25.1427" gradientUnits="userSpaceOnUse">
<stop offset="0.351581" stop-color="white"/>
<stop offset="0.801983" stop-color="white" stop-opacity="0.802312"/>
<stop offset="0.802083" stop-color="white" stop-opacity="0.8"/>
</linearGradient>
<linearGradient id="paint2_linear" x1="24.0093" y1="18.2438" x2="27.796" y2="19.7948" gradientUnits="userSpaceOnUse">
<stop offset="0.351581" stop-color="white"/>
<stop offset="0.801983" stop-color="white" stop-opacity="0.802312"/>
<stop offset="0.802083" stop-color="white" stop-opacity="0.8"/>
</linearGradient>
</defs>
</svg>
