<svg width="36" height="36" viewBox="0 0 36 36" fill="none" xmlns="http://www.w3.org/2000/svg">
<circle cx="18" cy="18" r="18" fill="#FF6F29"/>
<path d="M22.7995 16.6108C23.5195 16.6108 23.9995 16.1664 23.9995 15.4997C23.9995 14.8331 23.5195 14.3886 22.7995 14.3886H19.9195L22.0795 12.3886C22.7995 11.9442 22.7995 11.0553 22.3195 10.8331C21.8395 10.3886 21.1195 10.3886 20.6395 10.8331L17.9995 13.2775L15.3595 10.8331C14.8795 10.3886 14.1595 10.3886 13.6795 10.8331C13.1995 11.0553 13.1995 11.9442 13.6795 12.3886L15.8395 14.3886H13.1995C12.4795 14.3886 11.9995 14.8331 11.9995 15.4997C11.9995 16.1664 12.4795 16.6108 13.1995 16.6108H16.7995V18.8331H13.1995C12.4795 18.8331 11.9995 19.2775 11.9995 19.9442C11.9995 20.6108 12.4795 21.0553 13.1995 21.0553H16.7995V24.3886C16.7995 25.0553 17.2795 25.4997 17.9995 25.4997C18.7195 25.4997 19.1995 25.0553 19.1995 24.3886V21.0553H22.7995C23.5195 21.0553 23.9995 20.6108 23.9995 19.9442C23.9995 19.2775 23.5195 18.8331 22.7995 18.8331H19.1995V16.6108H22.7995Z" fill="url(#paint0_linear)"/>
<path fill-rule="evenodd" clip-rule="evenodd" d="M10.7495 7.14906C13.3819 5.3901 16.5641 4.64813 19.703 5.06138C22.842 5.47463 25.7236 7.01492 27.8112 9.39528C29.8987 11.7756 31.0496 14.8337 31.0496 17.9997C31.0496 18.5796 30.5795 19.0497 29.9996 19.0497C29.4197 19.0497 28.9496 18.5796 28.9496 17.9997C28.9496 15.3432 27.9839 12.7772 26.2323 10.7799C24.4807 8.78259 22.0627 7.49017 19.4289 7.14342C16.7951 6.79667 14.125 7.41924 11.9162 8.89515C9.7073 10.3711 8.11033 12.5996 7.42276 15.1657C7.29956 15.6254 6.88248 15.9448 6.40649 15.9439C5.93049 15.943 5.51466 15.622 5.39326 15.1617L4.2342 10.7675C4.0863 10.2068 4.42096 9.63237 4.98168 9.48446C5.5424 9.33656 6.11685 9.67122 6.26475 10.2319L6.62592 11.6012C7.62418 9.82682 9.03154 8.29693 10.7495 7.14906ZM5.99948 16.9497C6.57937 16.9497 7.04948 17.4198 7.04948 17.9997C7.04948 20.6563 8.01524 23.2223 9.76683 25.2196C11.5184 27.2169 13.9364 28.5093 16.5702 28.8561C19.204 29.2028 21.8741 28.5802 24.083 27.1043C26.2918 25.6284 27.8888 23.3998 28.5764 20.8338C28.6996 20.374 29.1166 20.0546 29.5926 20.0556C30.0686 20.0565 30.4845 20.3775 30.6059 20.8378L31.7649 25.2319C31.9128 25.7927 31.5782 26.3671 31.0174 26.515C30.4567 26.6629 29.8823 26.3283 29.7344 25.7675L29.3732 24.3983C28.3749 26.1727 26.9676 27.7025 25.2497 28.8504C22.6172 30.6094 19.4351 31.3513 16.2961 30.9381C13.1572 30.5248 10.2755 28.9846 8.18796 26.6042C6.10045 24.2239 4.94948 21.1658 4.94948 17.9997C4.94948 17.4198 5.41958 16.9497 5.99948 16.9497Z" fill="url(#paint1_linear)"/>
<defs>
<linearGradient id="paint0_linear" x1="4.2847" y1="7.07093" x2="38.5409" y2="21.9083" gradientUnits="userSpaceOnUse">
<stop offset="0.351581" stop-color="white"/>
<stop offset="0.801983" stop-color="white" stop-opacity="0.802312"/>
<stop offset="0.802083" stop-color="white" stop-opacity="0.8"/>
</linearGradient>
<linearGradient id="paint1_linear" x1="4.2847" y1="7.07093" x2="38.5409" y2="21.9083" gradientUnits="userSpaceOnUse">
<stop offset="0.351581" stop-color="white"/>
<stop offset="0.801983" stop-color="white" stop-opacity="0.802312"/>
<stop offset="0.802083" stop-color="white" stop-opacity="0.8"/>
</linearGradient>
</defs>
</svg>
