<svg width="36" height="36" viewBox="0 0 36 36" fill="none" xmlns="http://www.w3.org/2000/svg">
<circle cx="18" cy="18" r="18" fill="#FF6F29"/>
<path d="M8.90857 7.7145C7.97004 8.241 7.5 8.8125 7.5 9.429V11.1435C7.5 11.76 7.97004 12.3315 8.90857 12.858C9.84711 13.386 11.124 13.803 12.7362 14.1105C14.35 14.418 16.1045 14.571 18 14.571C19.8955 14.571 21.65 14.4165 23.2622 14.109C24.8745 13.8015 26.1514 13.383 27.0899 12.8565C28.0284 12.33 28.4985 11.7585 28.4985 11.142V9.429C28.4985 8.8125 28.0284 8.241 27.0899 7.7145C26.1514 7.188 24.8745 6.771 23.2622 6.462C21.65 6.1545 19.8955 6 18 6C16.1045 6 14.35 6.1545 12.7362 6.462C11.124 6.771 9.84711 7.188 8.90857 7.7145ZM7.50153 19.152V21.429C7.50153 22.0455 7.97157 22.617 8.9101 23.1435C9.84864 23.67 11.1255 24.087 12.7378 24.396C14.3515 24.7035 16.1061 24.858 18.0015 24.858C19.897 24.858 21.6516 24.7035 23.2638 24.396C24.876 24.0885 26.1529 23.67 27.0914 23.1435C28.03 22.617 28.5 22.0455 28.5 21.429V19.152C27.416 19.902 25.9339 20.469 24.0569 20.853C22.1783 21.237 20.1603 21.429 18 21.429C15.8397 21.429 13.8217 21.237 11.9431 20.853C10.0661 20.469 8.58552 19.902 7.50153 19.152ZM7.50153 24.2955V26.5725C7.50153 27.189 7.97157 27.7605 8.9101 28.287C9.84864 28.8135 11.1255 29.2305 12.7378 29.5395C14.35 29.847 16.1045 30 18 30C19.8955 30 21.65 29.8455 23.2622 29.538C24.8745 29.229 26.1514 28.812 27.0899 28.2855C28.0284 27.759 28.4985 27.1875 28.4985 26.571V24.294C27.4145 25.044 25.9324 25.611 24.0553 25.995C22.1783 26.379 20.1603 26.571 18 26.571C15.8397 26.571 13.8217 26.379 11.9431 25.995C10.0661 25.611 8.58552 25.0455 7.50153 24.2955ZM7.50153 14.0085V16.2855C7.50153 16.902 7.97157 17.4735 8.9101 18C9.84864 18.5265 11.1255 18.9435 12.7378 19.2525C14.35 19.56 16.1045 19.7145 18 19.7145C19.8955 19.7145 21.65 19.56 23.2622 19.2525C24.8745 18.945 26.1514 18.5265 27.0899 18C28.0284 17.4735 28.4985 16.902 28.4985 16.2855V14.0085C27.4145 14.7585 25.9324 15.3255 24.0553 15.7095C22.1783 16.0935 20.1603 16.2855 18 16.2855C15.8397 16.2855 13.8217 16.0935 11.9431 15.7095C10.0661 15.327 8.58552 14.7585 7.50153 14.0085Z" fill="url(#paint0_linear)"/>
<defs>
<linearGradient id="paint0_linear" x1="7.56504" y1="7.95055" x2="34.9954" y2="17.7811" gradientUnits="userSpaceOnUse">
<stop offset="0.351581" stop-color="white"/>
<stop offset="0.801983" stop-color="white" stop-opacity="0.802312"/>
<stop offset="0.802083" stop-color="white" stop-opacity="0.8"/>
</linearGradient>
</defs>
</svg>
