<svg width="20" height="20" viewBox="0 0 20 20" fill="none" xmlns="http://www.w3.org/2000/svg">
<path d="M18.8725 4.33325C19.1493 4.33325 19.4148 4.44271 19.6106 4.63754C19.8064 4.83236 19.9163 5.09661 19.9163 5.37214V16.7999C19.9163 17.6265 19.5864 18.4192 18.9991 19.0037C18.4118 19.5882 17.6153 19.9166 16.7848 19.9166H3.21459C2.38404 19.9166 1.58751 19.5882 1.00023 19.0037C0.41294 18.4192 0.0830078 17.6265 0.0830078 16.7999V5.37214C0.0830078 5.23571 0.110007 5.10062 0.162466 4.97458C0.214925 4.84853 0.291815 4.734 0.388747 4.63754C0.485678 4.54107 0.600753 4.46454 0.7274 4.41233C0.854047 4.36012 0.989785 4.33325 1.12687 4.33325H18.8725ZM7.16455 7.54238C7.05739 7.4683 6.92623 7.43685 6.79692 7.45424C6.66762 7.47163 6.54955 7.53659 6.46598 7.63631C6.38241 7.73604 6.3394 7.86331 6.34543 7.99303C6.35147 8.12275 6.4061 8.24551 6.49857 8.33713L8.73974 10.5666H6.8681L6.77415 10.5749C6.64581 10.598 6.53082 10.6681 6.45183 10.7714C6.37283 10.8747 6.33556 11.0037 6.34734 11.133C6.35913 11.2622 6.41912 11.3824 6.5155 11.4699C6.61188 11.5573 6.73767 11.6057 6.8681 11.6055H9.47775V12.6444H6.8681L6.77415 12.6527C6.64581 12.6758 6.53082 12.7459 6.45183 12.8492C6.37283 12.9525 6.33556 13.0815 6.34734 13.2107C6.35913 13.34 6.41912 13.4602 6.5155 13.5477C6.61188 13.6351 6.73767 13.6835 6.8681 13.6833H9.47775V16.2805L9.4861 16.374C9.50933 16.5017 9.57978 16.6161 9.68356 16.6948C9.78734 16.7734 9.91694 16.8105 10.0468 16.7988C10.1767 16.787 10.2975 16.7273 10.3854 16.6314C10.4732 16.5355 10.5218 16.4103 10.5216 16.2805V13.6833H13.1313L13.2252 13.6749C13.3535 13.6518 13.4685 13.5817 13.5475 13.4784C13.6265 13.3751 13.6638 13.2461 13.652 13.1169C13.6402 12.9876 13.5802 12.8674 13.4839 12.7799C13.3875 12.6925 13.2617 12.6441 13.1313 12.6444H10.5216V11.6055H13.1313L13.2252 11.5972C13.3535 11.574 13.4685 11.5039 13.5475 11.4006C13.6265 11.2974 13.6638 11.1684 13.652 11.0391C13.6402 10.9098 13.5802 10.7896 13.4839 10.7022C13.3875 10.6147 13.2617 10.5663 13.1313 10.5666H11.2586L13.5008 8.33713L13.5603 8.26441C13.6299 8.16447 13.6621 8.04339 13.6512 7.92228C13.6403 7.80116 13.5871 7.68768 13.5008 7.6016L13.4277 7.54238C13.3273 7.47311 13.2056 7.4411 13.0839 7.45192C12.9622 7.46274 12.8482 7.51571 12.7617 7.6016L9.99968 10.3515L7.23762 7.6016L7.16455 7.54238Z" fill="url(#paint0_linear)"/>
<path d="M2.91634 1.49992C2.91634 0.717515 3.55061 0.083252 4.33301 0.083252H15.6663C16.4487 0.083252 17.083 0.717515 17.083 1.49992C17.083 2.28232 16.4487 2.91659 15.6663 2.91659H4.33301C3.55061 2.91659 2.91634 2.28232 2.91634 1.49992Z" fill="url(#paint1_linear)"/>
<defs>
<linearGradient id="paint0_linear" x1="0.144434" y1="1.69516" x2="25.1786" y2="11.9487" gradientUnits="userSpaceOnUse">
<stop offset="0.351581" stop-color="white"/>
<stop offset="0.802083" stop-color="white" stop-opacity="0.8"/>
</linearGradient>
<linearGradient id="paint1_linear" x1="0.144434" y1="1.69516" x2="25.1786" y2="11.9487" gradientUnits="userSpaceOnUse">
<stop offset="0.351581" stop-color="white"/>
<stop offset="0.802083" stop-color="white" stop-opacity="0.8"/>
</linearGradient>
</defs>
</svg>
