<svg width="28" height="28" viewBox="0 0 28 28" fill="none" xmlns="http://www.w3.org/2000/svg">
<path fill-rule="evenodd" clip-rule="evenodd" d="M10.5 5.83333H5.83333V10.5H10.5V5.83333ZM3.5 3.5V12.8333H12.8333V3.5H3.5ZM10.5 17.5H5.83333V22.1667H10.5V17.5ZM3.5 15.1667V24.5H12.8333V15.1667H3.5ZM17.5 5.83333H22.1667V10.5H17.5V5.83333ZM15.1667 12.8333V3.5H24.5V12.8333H15.1667Z" fill="#1A66FF"/>
<path fill-rule="evenodd" clip-rule="evenodd" d="M22.2032 23.8539C21.5085 24.2644 20.6981 24.5001 19.8327 24.5001C17.2554 24.5001 15.166 22.4107 15.166 19.8334C15.166 17.2561 17.2554 15.1667 19.8327 15.1667C22.41 15.1667 24.4993 17.2561 24.4993 19.8334C24.4993 20.6989 24.2638 21.5094 23.8532 22.2042L25.5365 23.8874L23.8865 25.5373L22.2032 23.8539ZM22.166 19.8334C22.166 21.1221 21.1214 22.1667 19.8327 22.1667C18.544 22.1667 17.4993 21.1221 17.4993 19.8334C17.4993 18.5447 18.544 17.5001 19.8327 17.5001C21.1214 17.5001 22.166 18.5447 22.166 19.8334Z" fill="#1A66FF"/>
</svg>
